<svg xmlns="http://www.w3.org/2000/svg" viewBox="0 0 2144 1600.67"><defs><style>.cls-1{opacity:0.5;}.cls-2{fill:#e2edff;}.cls-11,.cls-3{fill:#fff;}.cls-4{fill:#ffb900;}.cls-5{fill:#007bff;}.cls-6{fill:#14cca1;}.cls-18,.cls-7{fill:#ff5c33;}.cls-8{opacity:0.84;}.cls-9{fill:#e8950c;}.cls-10{fill:#001f40;}.cls-11{opacity:0.6;}.cls-12,.cls-16{fill:#003e80;}.cls-12{opacity:0.1;}.cls-13{fill:#4a191b;opacity:0.3;}.cls-14{fill:#95beff;}.cls-15{fill:#ffba9a;}.cls-17{fill:#974245;}.cls-18{opacity:0.2;}</style></defs><title>cele</title><g id="Layer_2" data-name="Layer 2"><g id="OBJECTS"><g class="cls-1"><path class="cls-2" d="M2043.43,1207.23c-45.59-134.32-167.81-244.46-309-257.87-133.29-12.65-262,56.63-395.87,57.86C1122,1009.22,942.34,837.46,730.24,794c-246.5-50.56-518.54,102.6-603.17,339.57-54.65,153-26.66,328.5,60,465.14H2004.48C2066.33,1478.64,2086.75,1334.84,2043.43,1207.23Z"/></g><path class="cls-3" d="M346,1228.7C521.7,1201.34,677.69,1075.94,745,911.81A532.88,532.88,0,0,0,775.71,805.3c-1.33-.39-2.65-.78-4-1.15a557.82,557.82,0,0,1-18.07,72.36C726.25,960.8,675.52,1036.5,610,1096c-65,59.07-144.81,102.3-230.55,122.19-88.84,20.61-182.67,14.8-269.27-13.14-.76-.24-1.52-.53-2.28-.78-.26,1.31-.51,2.63-.75,3.94C183.8,1233.26,266,1241.16,346,1228.7Z"/><path class="cls-3" d="M631.42,1347.3c131.13,17.53,265.84,26.91,395.41-6.27,58.78-15,115.56-39,165.33-73.94,50-35.1,91.34-81,124.14-132.31,26.23-41,46.7-84.71,63.14-129.94-1.45.15-2.89.31-4.34.44a689.53,689.53,0,0,1-39.94,89.47c-30.24,56.13-69.38,107.88-118.61,148.72-48.54,40.26-105.89,68.62-166.08,86.82-127.15,38.45-261.8,32.74-392.06,16.51C515.91,1329,373.29,1299,229,1305.4c-43.13,1.92-86.76,7.06-129.4,16.39.06,1.39.09,2.79.17,4.18a734.42,734.42,0,0,1,105.47-15.18C348.27,1300.39,490.26,1328.43,631.42,1347.3Z"/><path class="cls-3" d="M1914.74,1441.5c-50.4-11-100.12-26.46-146.11-50.13-42.85-22.06-83.23-51.45-111.83-90.72-29.4-40.36-43.44-89.29-39.06-139.12,8.06-91.51,67.71-164.65,144.82-208.15-2-.37-4-.7-5.93-1-64.73,37.4-116.32,94.69-136.05,170-12.58,48-9.69,99,11.39,144.22,20.21,43.36,55,78.09,94.3,104.53,41.51,27.9,88.43,47.46,136.35,61.31A826.38,826.38,0,0,0,2039.26,1463c4.79.3,9.58.5,14.38.72.29-1.32.59-2.64.87-4A830.72,830.72,0,0,1,1914.74,1441.5Z"/><path class="cls-3" d="M866.15,907.38a568,568,0,0,1,30.43-56l-3.68-1.68q-12,19.46-22.45,39.84a566.45,566.45,0,0,0-41.41,106c-11.11,40-20.5,83.94-10.23,125.1,7.94,31.78,28.75,61.45,60.38,72.88,35.79,12.93,74.67-.49,106.35-18,34.54-19.13,66.16-44.69,96.08-70.29a903.57,903.57,0,0,0,85-83q16-17.82,31-36.48c-1.42-.42-2.83-.84-4.25-1.28a895.63,895.63,0,0,1-166.47,159.09c-31.86,23.37-67.76,47-108.14,50.75-40.12,3.71-73.68-19.36-89.57-55.49-17.61-40.06-10.44-85.7-.33-126.7A556.42,556.42,0,0,1,866.15,907.38Z"/><path class="cls-3" d="M1943.69,1337c41.46,2.21,83.08-8.09,121.08-26.17-.1-1.21-.19-2.42-.3-3.62-31.48,14.91-65.54,24.1-101,25.81-39.76,1.92-80.37-8.49-110-36.14-26.71-24.94-40.1-61.2-29.87-97,4.53-15.91,13.51-30.82,26.44-41.29,16.8-13.6,38.46-17.06,59.46-17.7,18.91-.57,37.91.78,56.74-1.63a149.89,149.89,0,0,0,39.86-11c-.7-1.14-1.39-2.3-2.11-3.44-4.15,1.76-8.38,3.36-12.68,4.74-38.8,12.41-80.33.37-118.81,12.67-30.06,9.6-50.07,36.51-55.15,67.14-5.31,32.05,6.72,63.33,29.15,86.3C1872.09,1321.82,1907.55,1335.05,1943.69,1337Z"/><path class="cls-3" d="M1561.93,1469.14q-27-64.23-54-128.48c-12.59-30-25.82-62.63-53-82.47-28.66-20.94-67.65-20.94-99.67-8.13-34,13.61-61,40-84.1,67.74-45.94,55.19-78.9,120.76-97.19,190.13a507.25,507.25,0,0,0-15.31,90.74h4.11c6.92-89.61,37.84-177.36,90.22-250.8,21.42-30,46.38-59.87,77.49-80.27,32-21,74.71-31.06,110.46-13.26,32.65,16.26,48.15,51.89,61.55,83.72q25.11,59.63,50.1,119.3,29.65,70.65,59.33,141.31h4.31Z"/><g class="cls-1"><path class="cls-2" d="M1391.77,720.19c-26,.78-52-.29-82.13-11.22-64.22-23.26-144.22,14.86-144.75,89-.41,57.51,52.47,95.57,101.46,113.11,92.41,33.08,283.82,15.74,274.81-121.56-2.88-43.94-26.24-64.38-68.26-69.23C1443.25,716.83,1417.54,719.42,1391.77,720.19Z"/></g><path class="cls-4" d="M1737.51,341.43c-25.18-8.72-42.4-23.85-61.8-46l8.21-17.49c20.37,27,27,41.58,52.51,39.47Z"/><path class="cls-5" d="M2026.67,728.93c-18.74-24.37-27.11-49.39-34.05-82.25l16-10.59c5.49,37.88,4.49,55.55,28.73,70.22Z"/><path class="cls-6" d="M1399.1,407.24c-26.52,6.6-48.58,2.81-75.62-6.09l0-20.55c30,12.7,42.27,22.07,64.41,5.53Z"/><path class="cls-7" d="M717.33,323.65c-12.54,17.82-26.62,27.35-45.57,36.61l-8.13-11.7c22.12-8.65,32.83-9.82,38.94-31Z"/><path class="cls-5" d="M281.12,842.45c-29.78,1.5-52.09-6.74-78.31-21.2l5.4-21c28.32,18.92,38.82,30.95,66.62,18.4Z"/><path class="cls-6" d="M335.44,331.82c-22.72-16.51-34.63-36.77-46-64.59l15.47-14.49C315.39,285.58,316.54,302,343.84,308Z"/><path class="cls-5" d="M471.43,514.07c-25.75,18-50,23.21-81.15,25.16l-6.44-21.52c35.37.8,51.17,5.5,69.23-21.08Z"/><path class="cls-4" d="M840.22,18.24c-25.83,15.19-49.49,18.25-79.49,17.61l-4.89-21.2c33.93,3.63,48.83,9.43,67.79-14.65Z"/><path class="cls-6" d="M1206.27,70.62c-21.52-10.62-35.45-26-50.7-47.84l8.77-14.52c15.7,26.22,20.34,39.9,43,41Z"/><path class="cls-7" d="M1541.41,154.64c23.56-13.87,36.63-32,49.67-57.23l-14.41-14.62c-12.47,30-14.64,45.24-42.07,49Z"/><g class="cls-8"><path class="cls-7" d="M765.78,900.16c-23.75-14.15-38.52-33-54.33-59.29l11-15.7c16,31.34,20.33,47.37,46.09,50.76Z"/></g><path class="cls-7" d="M1551.39,687.29c-9.46,29.45-24.05,49-45,70.58l-15-11c25.32-22.46,38.74-29.42,38.6-59.93Z"/><circle class="cls-7" cx="576" cy="200" r="10"/><circle class="cls-4" cx="1370.67" cy="200" r="10"/><circle class="cls-7" cx="1632" cy="504.67" r="10"/><circle class="cls-6" cx="592" cy="606" r="10"/><rect class="cls-4" x="121.95" y="504.19" width="28.28" height="28.28" transform="translate(-326.66 248.05) rotate(-45)"/><rect class="cls-6" x="1858.71" y="471.43" width="28.28" height="28.28" transform="translate(205.19 1466.53) rotate(-45)"/><path class="cls-4" d="M1040.15,1133.68h118.16a25.16,25.16,0,0,1,25.16,25.16v39.35a0,0,0,0,1,0,0H1015a0,0,0,0,1,0,0v-39.35A25.16,25.16,0,0,1,1040.15,1133.68Z" transform="translate(-1.42 1.34) rotate(-0.07)"/><rect class="cls-4" x="1044.75" y="963.16" width="109" height="193"/><polygon class="cls-9" points="1044.75 1046.57 1044.75 963.16 1153.75 963.16 1153.64 1003.67 1044.75 1046.57"/><path class="cls-4" d="M1286.68,814.31l-7-23c127.63-38.62,181.75-118.46,165.44-244.08a3.81,3.81,0,0,0-3.19-.51l-17.57,4.75c-7,1.9-11.76,7.16-11.76,13.1v27.21c0,16.52-13.94,29.73-31.73,30.07-18.39.35-49.86,1-54.05,1v-24c2.87,0,22.9-.36,53.59-.94,4.44-.09,8.19-2.87,8.19-6.08V564.6c0-16.92,11.85-31.49,29.49-36.27l17.57-4.75a27.54,27.54,0,0,1,22.49,3.6,24.33,24.33,0,0,1,10.77,17c8.57,66-1,121.76-28.58,165.64C1410.59,757.3,1358.87,792.47,1286.68,814.31Z"/><path class="cls-4" d="M911.6,814.31c-72.19-21.84-123.91-57-153.71-104.5-27.54-43.88-37.15-99.61-28.58-165.64a24.29,24.29,0,0,1,10.78-17,27.52,27.52,0,0,1,22.48-3.6l17.57,4.75c17.64,4.77,29.49,19.35,29.49,36.27v27.21c0,3.21,3.75,6,8.19,6.08,30.69.58,50.72.94,53.59.94v24c-4.19,0-35.66-.6-54-1-17.79-.34-31.73-13.55-31.73-30.07V564.6c0-5.94-4.73-11.2-11.76-13.1l-17.57-4.75a3.26,3.26,0,0,0-3.25.71c-16.25,125.42,37.87,205.26,165.5,243.88Z"/><path class="cls-4" d="M1339.18,549.69,1313.1,875.37a139.35,139.35,0,0,1-138.92,128.2H1024.3a139.32,139.32,0,0,1-138.88-128.2l-13.52-169L859.34,549.69a42.16,42.16,0,0,1,42-45.52h395.76A42.18,42.18,0,0,1,1339.18,549.69Z"/><path class="cls-9" d="M1262.66,971.89a138.9,138.9,0,0,1-88.48,31.68H1024.3a139.32,139.32,0,0,1-138.88-128.2l-13.52-169C966.82,826.33,1118.18,929.25,1262.66,971.89Z"/><rect class="cls-10" x="1024.3" y="1001.57" width="156.17" height="4"/><rect class="cls-10" x="1040.11" y="1131.75" width="29.03" height="4"/><rect class="cls-10" x="1130.11" y="1131.75" width="29.03" height="4"/><path class="cls-4" d="M1019.77,1184.2H1178.6a44.06,44.06,0,0,1,44.06,44.06v65.23a0,0,0,0,1,0,0h-247a0,0,0,0,1,0,0v-65.23A44.06,44.06,0,0,1,1019.77,1184.2Z" transform="translate(-1.51 1.34) rotate(-0.07)"/><rect class="cls-9" x="1015.14" y="1182.67" width="168.25" height="4"/><ellipse class="cls-11" cx="1227.64" cy="644.67" rx="22" ry="43"/><rect class="cls-3" x="493.93" y="1496.34" width="1211.42" height="102.98"/><rect class="cls-3" x="694.11" y="1393.37" width="811.05" height="102.98"/><rect class="cls-3" x="834.39" y="1290.39" width="530.5" height="102.98"/><rect class="cls-7" x="801.24" y="1496.35" width="596.8" height="102.96"/><rect class="cls-7" x="887.16" y="1393.35" width="424.96" height="103"/><rect class="cls-7" x="975.28" y="1290.39" width="248.72" height="102.96"/><rect class="cls-12" x="834.4" y="1369.31" width="140.88" height="24"/><rect class="cls-12" x="1224" y="1369.31" width="140.88" height="24"/><rect class="cls-13" x="975.28" y="1369.31" width="248.72" height="24"/><rect class="cls-12" x="694.12" y="1472.19" width="193.04" height="24"/><rect class="cls-12" x="1312.12" y="1472.19" width="193.04" height="24"/><rect class="cls-13" x="887.16" y="1472.19" width="424.96" height="24"/><rect class="cls-12" x="493.92" y="1575.31" width="307.32" height="24"/><rect class="cls-12" x="1398.04" y="1575.31" width="307.32" height="24"/><rect class="cls-13" x="801.24" y="1575.31" width="596.8" height="24"/><polygon class="cls-14" points="495.93 1599.32 491.93 1599.32 491.93 1494.34 692.12 1494.18 692.11 1391.37 832.4 1391.31 832.39 1288.39 974.3 1288.39 974.3 1292.39 836.39 1292.39 836.4 1395.31 696.11 1395.37 696.12 1498.18 495.93 1498.34 495.93 1599.32"/><polygon class="cls-14" points="1707.35 1599.32 1703.35 1599.32 1703.35 1498.34 1503.16 1498.18 1503.17 1395.37 1362.88 1395.31 1362.89 1292.39 1222.69 1292.39 1222.69 1288.39 1366.89 1288.39 1366.88 1391.31 1507.17 1391.37 1507.16 1494.18 1707.35 1494.34 1707.35 1599.32"/><polygon class="cls-10" points="1074.27 593.75 1059.35 643.15 1117.57 661.51 1098.13 628.99 1103.84 600.43 1074.27 593.75"/><rect class="cls-3" x="1085.69" y="629.88" width="13.11" height="4" transform="translate(-166.74 546.92) rotate(-26.19)"/><path class="cls-5" d="M1064,439.33l41,3.93a45,45,0,0,1,23.35,8.75c13,10.08,18.14,25.78,15.33,41.79-.73,4.14-1.61,8-2.25,11.24L1107.84,623.9,1057,596.79l22.68-88.53-51.61-1.59-28.14-59,10.16-47Z"/><polygon class="cls-10" points="1056.9 646.96 1044.23 701.12 1108.11 716.88 1084.97 683.23 1089.16 652.13 1056.9 646.96"/><rect class="cls-3" x="1071.78" y="684.74" width="14.13" height="4" transform="translate(-198.7 628.51) rotate(-29.87)"/><path class="cls-5" d="M1002.29,507.47l43.86,160,49.26-5.58L1066.6,492.31c-2.78-14.78-3.41-23.86-26-35.13l-24.23-13.44-6.22-43.14-36.74,23.92-6,56.21c-1.43,13.61,8.71,25.62,22.12,26.19l12.75.55"/><path class="cls-3" d="M1066.13,438.5l-73.07,8.3a14.91,14.91,0,0,1-16.49-13.07l-12.75-108.2,60.92-14.86,64.63,9.66-11.86,106.76A12.93,12.93,0,0,1,1066.13,438.5Z"/><path class="cls-15" d="M914.15,196.22s5.68-27.9,1.27-26.88-8.93,11.73-8.93,11.73-9.66-23.2-13.36-23-2.59,6.12-2.59,6.12-6.91-3.29-8.71,3.53c0,0-6.91-3.29-6.85,9.36,0,4.6,3.71,20.59,8.4,39.06l33.1-12.58Z"/><path class="cls-16" d="M939.64,267.67l-23.16-64.08-33.1,12.58c5.8,22.83,13.12,49.47,16.93,63.16a40.74,40.74,0,0,0,8.88,16.23l66.45,79.11L1004.31,334Z"/><path class="cls-17" d="M902.08,193.81c-3.27-3.88-3-7.61.83-11.08l.67.74c-3.4,3.09-3.64,6.26-.73,9.7Z"/><rect class="cls-17" x="891.49" y="163.68" width="1" height="14.45" transform="translate(-6.76 301.72) rotate(-19.13)"/><polygon class="cls-17" points="886.8 179.91 882.62 167.46 883.56 167.14 887.75 179.6 886.8 179.91"/><polygon class="cls-17" points="882.32 183.42 877.09 169.07 878.03 168.72 883.26 183.08 882.32 183.42"/><path class="cls-15" d="M1171.09,156.9c-.75-12.63-9.28-10.07-9.28-10.07-1.67-5.5-7.07-1.82-7.07-1.82s.28-3.68-3.43-3.68-11.42,21.51-11.42,21.51-5.2-10.4-9.66-11.14,3,26.74,3,26.74l-2.14,8.64,33.63,11.84C1168.44,179.13,1171.37,161.7,1171.09,156.9Z"/><path class="cls-16" d="M1131.06,187.08l-19.42,65.59-56,74.66,32,33.34,56.78-83.4a40.58,40.58,0,0,0,7.84-16.76c2.83-13.4,8.16-39,12.43-61.59Z"/><path class="cls-17" d="M1145.41,175.39l-.82-.56c2.52-3.73,1.94-6.86-1.77-9.56l.59-.81C1147.58,167.5,1148.26,171.18,1145.41,175.39Z"/><rect class="cls-17" x="1145.79" y="151.04" width="14.45" height="1" transform="translate(744.88 1240.5) rotate(-76.94)"/><rect class="cls-17" x="1153.49" y="152.92" width="13.14" height="1" transform="translate(760.92 1253.4) rotate(-77.59)"/><polygon class="cls-17" points="1163.96 162.95 1162.99 162.72 1166.66 147.88 1167.63 148.12 1163.96 162.95"/><path class="cls-15" d="M1023.86,328.62h0A12.67,12.67,0,0,1,1011.19,316V293.46h25.34V316A12.67,12.67,0,0,1,1023.86,328.62Z"/><path class="cls-10" d="M1036.25,296.7c-4,14.15-20.18,14.74-25.19,0Z"/><ellipse class="cls-15" cx="1023.86" cy="280.5" rx="18.7" ry="21.8"/><path class="cls-10" d="M1006.75,280.87c1.1-15,11-18.56,11-18.56l12.92-.23a26.34,26.34,0,0,1,10.06,19.34l4.42-.22c2.75-14.69.33-29.06-8.18-32.37l4.2-2.1c-35.07-7.76-43.75,6.29-39.55,30.93Z"/><path class="cls-15" d="M1009.08,279.46c1.4,2.94.45,6.31-2.12,7.54s-5.79-.17-7.19-3.11-.45-6.31,2.13-7.53S1007.69,276.52,1009.08,279.46Z"/><path class="cls-10" d="M1005.34,283.15a5.31,5.31,0,0,0-3.42-3.41l.3-.84a6.12,6.12,0,0,1,3.95,4Z"/><path class="cls-15" d="M1039.25,279.46c-1.4,2.94-.44,6.31,2.13,7.54s5.79-.17,7.18-3.11.45-6.31-2.12-7.53S1040.65,276.52,1039.25,279.46Z"/><path class="cls-10" d="M1043,283.15l-.83-.29a6.12,6.12,0,0,1,3.95-4l.29.84A5.32,5.32,0,0,0,1043,283.15Z"/><path class="cls-16" d="M1010.9,314c13,43.81,8.63,110.73-6.22,160.84L951.94,483l11.88-157.49Z"/><path class="cls-16" d="M1036.4,312.51c4,50.73,13.43,124.07,32.09,159.22l31.91-16.31-11-135.09Z"/><path class="cls-10" d="M1094.42,662.06c-.28-1.7-27.81-170.33-32.23-184.6-4.31-13.88-32.14-25.25-32.42-25.37l.75-1.85c1.18.47,29,11.85,33.57,26.63,4.48,14.4,31.17,177.91,32.31,184.87Z"/><rect class="cls-10" x="1007.64" y="494.27" width="2" height="72.8" transform="translate(-106.98 297.51) rotate(-15.95)"/><polygon class="cls-10" points="1094.3 510.66 1079.6 509.26 1079.79 507.27 1094.48 508.67 1094.3 510.66"/><polygon class="cls-10" points="417.36 1552.8 409.92 1600.05 473.53 1600.05 448.61 1575.12 450.46 1551.68 417.36 1552.8"/><rect class="cls-3" x="434.94" y="1576.84" width="14.68" height="4" transform="translate(-739.6 442.4) rotate(-30.47)"/><path class="cls-6" d="M548.72,1209c-.94,5.63-1.83,11.21-2.86,16.74q-2.61,15.68-5.44,31-10,55.17-22,106.82v.09c-15.84,69.55-34,134.64-54,196.11H407.92c22.77-108.65,44.82-216.15,51.92-299.36,1.07-12.23,1.79-24,2.14-35.09Z"/><polygon class="cls-10" points="546.44 1550.57 543.68 1599.14 611.53 1600.05 584.59 1575.12 586.6 1551.68 546.44 1550.57"/><rect class="cls-3" x="569.97" y="1576.84" width="15.56" height="4" transform="translate(-684.63 468.47) rotate(-28.57)"/><path class="cls-6" d="M594,1558.57H534.88c-4.15-67.18-9.19-132.85-16.43-194.86v-.09c-4.24-36.42-9.19-71.65-15.17-105.13q-2.88-16.2-6.12-31.87l48.7-.85,24.24-.4c1.61,9.91,3.13,19.86,4.47,29.86C588.32,1353.09,592.2,1455.32,594,1558.57Z"/><path class="cls-13" d="M574.57,1255.23l-34.15,1.57-37.14,1.69-43.44,2c1.07-12.23,1.79-24,2.14-35.09L548.72,1209c-.94,5.63-1.83,11.21-2.86,16.74l24.24-.4C571.71,1235.28,573.23,1245.23,574.57,1255.23Z"/><polygon class="cls-10" points="514.69 1389.31 512.73 1388.92 532.82 1289.22 534.78 1289.62 514.69 1389.31"/><path class="cls-5" d="M533.05,1090.76c-29.94,3.24-54.4.74-78.22-13.61l-23.16,39.33,27,24.13-5.43,85.11A12.49,12.49,0,0,0,465.69,1239H567.87a13.29,13.29,0,0,0,12.47-8.69,13.67,13.67,0,0,0,.8-4l4.37-90.22,45.75-10.82-10.55-36C585.85,1093.35,554.4,1095.55,533.05,1090.76Z"/><path class="cls-15" d="M454.84,1077.16l-23.17,39.33-32.1-28.71c-.71-.62-1.38-1.29-2.05-2A47.17,47.17,0,0,1,385,1063c-.27-1.11-.53-2.32-.76-3.52-7.05-31.3-20.4-92.23-19.73-97.59.94-7.23,8.35-4.06,8.35-4.06.58-6.92,6.34-3.17,6.34-3.17,0-3.93,1.29-4.87,5.22-4.69s9.11,23.84,9.11,23.84,5.76-12.28,10-11.34-3.7,24.55-3.7,24.55l27.9,68.44A139.9,139.9,0,0,0,454.84,1077.16Z"/><path class="cls-18" d="M401.9,1074.93a15.59,15.59,0,0,1-4.38,10.89A47.17,47.17,0,0,1,385,1063c-.27-1.11-.53-2.32-.76-3.52a15.09,15.09,0,0,1,2-.14A15.62,15.62,0,0,1,401.9,1074.93Z"/><path class="cls-17" d="M388.53,987.5c-3.49-3.69-3.42-7.42.2-11.11l.71.7c-3.22,3.27-3.27,6.45-.18,9.72Z"/><polygon class="cls-17" points="380.78 964.56 378.73 954.72 379.71 954.52 381.76 964.36 380.78 964.56"/><polygon class="cls-17" points="374.84 966.1 372.4 957.93 373.36 957.65 375.8 965.81 374.84 966.1"/><rect class="cls-17" x="369.15" y="960.42" width="1" height="7.89" transform="translate(-237.18 128.66) rotate(-15.01)"/><path class="cls-15" d="M678.4,1100.06c-.44.76-.93,1.47-1.38,2.23l-3,4.47a30.61,30.61,0,0,1-17.28,12.5,9.33,9.33,0,0,1-1.16.31l-24.33,5.76-10.53-36c9.73-1.16,19.73-2.41,29.86-3.75l30.14-56.92s0-24.19,3.34-24.91,6,14.11,6,14.11,13-19.69,17.09-19.69,3,5.58,3,5.58,3.8-4.68,6.08-2.45c1.16,1.16,1,5.4,1,5.4s1.5-1.4,4.45-.16C727.37,1008.91,709.16,1050.73,678.4,1100.06Z"/><path class="cls-18" d="M678.4,1100.06c-.44.76-.93,1.47-1.38,2.23l-3,4.47a30.61,30.61,0,0,1-17.28,12.5,14.77,14.77,0,0,1-.93-5.23,15.6,15.6,0,0,1,15.62-15.62A15.23,15.23,0,0,1,678.4,1100.06Z"/><path class="cls-17" d="M692.65,1031.69l-.5-.87c3.89-2.26,4.74-5.33,2.58-9.38l.88-.47C698,1025.53,697,1029.13,692.65,1031.69Z"/><polygon class="cls-17" points="706.21 1011.7 705.33 1011.22 710.08 1002.36 710.96 1002.84 706.21 1011.7"/><polygon class="cls-17" points="712.96 1014.37 712.07 1013.91 716.54 1005.33 717.43 1005.79 712.96 1014.37"/><polygon class="cls-17" points="717.34 1015.34 716.49 1014.81 720.61 1008.08 721.46 1008.6 717.34 1015.34"/><rect class="cls-10" x="451.31" y="1107.03" width="2" height="53.95" transform="translate(-707.2 751.79) rotate(-50.01)"/><polygon class="cls-10" points="584.97 1171.72 582.98 1171.62 585.98 1113.95 587.97 1114.05 584.97 1171.72"/><path class="cls-10" d="M533.1,1128.13a25.72,25.72,0,0,1-18.18-8.1l1.44-1.39c5.19,5.36,12.25,8.1,18.91,7.37a18,18,0,0,0,13.52-8.86l1.71,1a19.9,19.9,0,0,1-15,9.8A21.46,21.46,0,0,1,533.1,1128.13Z"/><path class="cls-15" d="M533.53,1112h0a14.53,14.53,0,0,1-16-12.82l-3.85-34.3,28.88-3.24,3.85,34.3A14.54,14.54,0,0,1,533.53,1112Z"/><path class="cls-10" d="M523.28,1077.74c6.65,7.63,14.18,13,22.94,15.33l-2.07-18.52Z"/><path class="cls-15" d="M557.93,1040.63s5.55,36.42-7.16,41.08c-11.87,4.35-27.49-4-27.49-4l-10.48-30.58,13.6-12.4Z"/><path class="cls-10" d="M518.28,1058.41c.74-7,3.47-13,10.56-17,20.69,8.39,33.64,2,42.93-11.42,0,0-11.84,2.54-19-2.07s-25.5-18-37.11,1.41c-16.23,7.53-12.79,20.62-6.23,29Z"/><ellipse class="cls-15" cx="515.12" cy="1061.19" rx="7.51" ry="8.66" transform="translate(-462.5 401.08) rotate(-30.08)"/><path class="cls-10" d="M516.35,1064.88c-.24-3.21-1.6-5.41-4.16-6.71l.91-1.78c3.19,1.62,4.95,4.42,5.25,8.34Z"/><path class="cls-3" d="M502.31,754a69.3,69.3,0,0,1,31.75,130.92L541,920.67l-24.7-29.41a69.34,69.34,0,1,1-14-137.26Z"/><path class="cls-14" d="M544.4,927.86l-28.9-34.41a71.34,71.34,0,1,1,58.14-70.12A71.08,71.08,0,0,1,536.3,886ZM517,889.06l20.5,24.41-5.73-29.64,1.33-.68a67.27,67.27,0,1,0-30.83,7.52,68.25,68.25,0,0,0,13.56-1.37Z"/><circle class="cls-14" cx="470" cy="824.97" r="9.69"/><circle class="cls-14" cx="502.31" cy="824.97" r="9.69"/><circle class="cls-14" cx="534.62" cy="824.97" r="9.69"/><path class="cls-7" d="M1569.5,1026.5l-41.7,84-29.45,20.88,16.86,21.82c7.7-3.36,15.09-6.63,20.75-9.15a55.47,55.47,0,0,0,18.46-13.35l30.94-34Z"/><path class="cls-15" d="M1487.21,1139.3s-27.53-.71-26.66,7.47c.83,7.75,18.55,12.45,18.55,12.45s-9.79,10.62-6.37,10.8c2.81.15,23.64-8.61,42.48-16.8l-16.86-21.82Z"/><polygon class="cls-10" points="1654.65 1440.04 1653.98 1495.29 1588.62 1495.29 1618.94 1468.34 1622.31 1437.34 1654.65 1440.04"/><rect class="cls-3" x="1622.01" y="1466.17" width="4" height="14.04" transform="translate(-563 1630.22) rotate(-46.32)"/><polygon class="cls-10" points="1679.86 1221.88 1731.08 1201.15 1756.34 1261.42 1719.77 1243.88 1689.88 1252.76 1679.86 1221.88"/><rect class="cls-3" x="1715.25" y="1235.32" width="14.04" height="4" transform="translate(-49.04 2403.36) rotate(-69.05)"/><polygon class="cls-5" points="1554.74 1155.17 1606.01 1446.99 1662.67 1445 1627.88 1118.98 1554.74 1155.17"/><path class="cls-5" d="M1589.79,1140.41l5.06,152.66a23.82,23.82,0,0,0,13.56,20.73h0a23.85,23.85,0,0,0,22.11-.82l68.13-39-3.14-60.51-38.75,14.39-.18-94.1Z"/><path class="cls-7" d="M1729,1044.1l-54.6-32a48.42,48.42,0,0,0-18.78-6.29l-35.2-4.15-29.24,9.15a43.27,43.27,0,0,0-30.26,38.75l-6.18,105.6,101.84-21.41,8.12-73.06,58.75,27.57a24.35,24.35,0,0,0,31.5-8.85c13.45-21.45,35.33-57.27,49.34-84.92l-33.41-11.86Z"/><path class="cls-15" d="M1810.63,955s1.66-4.43-.55-5.81-4.7,1.1-4.7,1.1,2.49-6.09-1.11-7.19-17.44,19.09-17.44,19.09-1.66-12.73-5.25-12.45-5.82,25.74-5.82,25.74l-4.88,7.17,33.41,11.86c8.21-16.19,13.72-29.58,13.26-35.64C1817.05,952.19,1810.63,955,1810.63,955Z"/><path class="cls-17" d="M1788.4,975.14l-.61-.8c3.57-2.74,4-5.89,1.37-9.63l.81-.58C1793,968.35,1792.43,972.05,1788.4,975.14Z"/><polygon class="cls-17" points="1801.07 957.05 1800.25 956.47 1806.03 948.24 1806.85 948.82 1801.07 957.05"/><rect class="cls-17" x="1804.02" y="956.72" width="8.52" height="1" transform="translate(-86.26 1729.79) rotate(-50.08)"/><rect class="cls-17" x="1807.43" y="960.77" width="7.89" height="1" transform="translate(-65.82 1786.66) rotate(-51.69)"/><path class="cls-9" d="M1647.7,960.43c-.87,13-12,25.27-26.19,24.31s-30-15.9-29.12-28.86,15.52-19.68,29.73-19.22C1642,937.31,1648.57,947.47,1647.7,960.43Z"/><path class="cls-15" d="M1619.13,1019.67h0a13.44,13.44,0,0,1-12.51-14.32l2.05-30.49,26.84,1.81-2,30.49A13.45,13.45,0,0,1,1619.13,1019.67Z"/><path class="cls-10" d="M1627.13,993c-6.07,6.41-12.66,11.27-20.51,12.39l1.1-14.53Z"/><path class="cls-15" d="M1598.13,957.09s-5.24,34.6,6.58,38.31,26.46-3.76,26.46-3.76l2.87-26.16-3.29-17Z"/><path class="cls-9" d="M1633.61,976a31.64,31.64,0,0,1-7.37-16.17c-8.49,3.69-18.82,4.09-30.63,1.82l3.5-10.86,25.85-4.92,13.34,3.82Z"/><ellipse class="cls-15" cx="1636.59" cy="976.12" rx="7.13" ry="6.16" transform="translate(-143.11 1657.22) rotate(-51.76)"/><path class="cls-10" d="M1635,979.27l-2-.14c.36-5.14,3.56-6.32,6.18-6.4l.07,2C1636.48,974.81,1635.17,976.21,1635,979.27Z"/><circle class="cls-9" cx="1645.81" cy="937.82" r="16.71" transform="translate(-73.18 1733.58) rotate(-54.52)"/><polygon class="cls-10" points="1555.83 1154.73 1553.84 1154.6 1561.34 1040.1 1563.33 1040.23 1555.83 1154.73"/><polygon class="cls-10" points="1691.38 1074.06 1647.88 1052.06 1648.79 1050.28 1692.29 1072.28 1691.38 1074.06"/><path class="cls-10" d="M1616.78,1033.86a14.39,14.39,0,0,1-2.37-.2c-5.63-1-9.89-5.38-11.71-12.06l1.93-.53c1.6,5.9,5.29,9.78,10.12,10.62,5.77,1,12.2-2.41,16.76-8.93l1.64,1.15C1628.74,1030.21,1622.64,1033.86,1616.78,1033.86Z"/><path class="cls-10" d="M1618,1316.89a24.7,24.7,0,0,1-7.91-1.25,23.37,23.37,0,0,1-14.7-14.71c-4-14.62-6-130.65-6-135.58l2,0c0,1.2,2.05,120.71,6,135.08,1.06,3.9,5.51,10.68,13.41,13.34,9.85,3.34,22.42-.55,36.35-11.2l1.22,1.59C1635.4,1314,1625.36,1316.89,1618,1316.89Z"/><rect class="cls-10" x="1624.11" y="1225.06" width="73.62" height="2" transform="translate(-319.78 644.07) rotate(-20.06)"/><path class="cls-3" d="M1685,692a69.3,69.3,0,0,0-31.75,130.92l-6.92,35.75,24.7-29.41A69.34,69.34,0,1,0,1685,692Z"/><path class="cls-14" d="M1642.9,865.86,1651,824a71.26,71.26,0,1,1,34,8.67,71.85,71.85,0,0,1-13.19-1.22ZM1685,694a67.3,67.3,0,0,0-30.83,127.15l1.33.68-5.74,29.64,20.51-24.41,1.17.24a68.25,68.25,0,0,0,13.56,1.37A67.34,67.34,0,0,0,1685,694Z"/><circle class="cls-14" cx="1652.69" cy="761.03" r="9.69"/><circle class="cls-14" cx="1685" cy="761.03" r="9.69"/><circle class="cls-14" cx="1717.31" cy="761.03" r="9.69"/><rect class="cls-10" y="1596.67" width="2144" height="4"/></g></g></svg>