<svg xmlns="http://www.w3.org/2000/svg"  fill="#fff" width="32" height="32"><path d="M20.51 1.258c-1.09 0-2.01.904-2.01 1.972a.5.5 0 1 0 1 0c0-.526.462-.972 1.01-.972a.98.98 0 0 1 .99.967c0 .231-.054.39-.217.627-.101.148-.48.415-.728.591-.113.08-.218.155-.29.21-.27.19-.587.588-.587 1.087v.655a.5.5 0 1 0 1 0V5.74c0-.093.083-.214.177-.28.08-.06.175-.127.278-.2.362-.256.772-.547.974-.842.276-.401.393-.759.393-1.193 0-1.085-.893-1.967-1.99-1.967zM14 4a3 3 0 0 0-3 3 3 3 0 0 0 .498 1.65.975.975 0 0 0-.486-.15H11a1 1 0 0 0-1 .988l-.078 6.5a.999.999 0 0 0 1.789.627l1.656-2.12L13.75 17H3a1 1 0 1 0 0 2h1v11a1 1 0 1 0 2 0V19h21v11a1 1 0 1 0 2 0V19h1a1 1 0 1 0 0-2H19.896l-.556-3.246 2.953 2.953a.997.997 0 0 0 1.414 0 1 1 0 0 0 0-1.414l-5-5a.985.985 0 0 0-.777-.28.983.983 0 0 0-.332.022l-3.862 1.043c-.074.02-.133.065-.199.1-.012.006-.023.01-.035.017a.971.971 0 0 0-.272.233c-.005.006-.012.009-.017.015l-.04.051c-.014.022-.035.038-.048.06l-1.168 1.497L12 9.51a.989.989 0 0 0-.064-.34A3 3 0 0 0 14 10a3 3 0 0 0 3-3 3 3 0 0 0-3-3zm6.203 3.346a.52.52 0 0 0-.353.144c-.1.1-.15.22-.15.35 0 .13.06.26.15.35a.503.503 0 0 0 .701.012c.1-.092.148-.223.148-.362a.505.505 0 0 0-.148-.36.5.5 0 0 0-.348-.134zM12 20v8.5a.5.5 0 1 0 1 0V20h-1zm2 0v8a1 1 0 1 0 2 0v-7h2v7a1 1 0 1 0 2 0v-8h-6zm7 0v8.5a.5.5 0 1 0 1 0V20h-1z"/></svg>