<?xml version="1.0" encoding="UTF-8"?><svg id="Layer_2" xmlns="http://www.w3.org/2000/svg" viewBox="0 0 132.03 121.99"><defs><style>.cls-1{fill:#fff;}.cls-2{fill:#893783;}.cls-3{opacity:.44;}.cls-4{fill:#e9a425;}</style></defs><g id="Layer_1-2"><g><path class="cls-3" d="M132.03,87.34l-17.11,16.18c-3.53,3.35-7.23,4.15-9.21,4.58l-.37,.08c-8.22,1.86-16.49,2.62-22.78,3.08-.23,.01-.67,.04-1.84,.72l-.6,.34c-3.88,2.23-7.9,4.54-11.9,6.77-3.48,1.94-7.14,2.9-10.81,2.9s-7.2-.93-10.64-2.8c-9.82-5.34-19.55-11.07-28.96-16.6l-3.77-2.22c-5.56-3.27-12.18-9.77-12.13-22.15,.03-5.28,.03-10.56,.04-15.83,.01-6.34,.02-12.68,.06-19.02,.04-7.6,2.68-13.64,7.86-17.98,.08-.07,.17-.14,.25-.2C12.33,9.09,20.21,4.91,20.21,4.91c0,0,4.42,9.89,4.69,10.87l5.99-3.07s8.88-5.01,13.17-7.62c4.33-2.63,8.82-3.96,13.35-3.96s8.94,1.3,13.29,3.88c10.24,6.07,19.82,11.62,29.29,16.94,8.53,4.8,12.99,12.56,12.9,22.44l-.02,1.75c-.1,10.84-.2,22.04,.09,32.96,.07,2.64-.21,5.09-.84,7.32l19.9,.91Z"/><path class="cls-1" d="M130.12,86.2l-17.11,16.18c-3.53,3.35-7.23,4.15-9.21,4.58l-.37,.08c-8.22,1.86-16.49,2.62-22.78,3.08-.23,.01-.67,.04-1.84,.72l-.6,.34c-3.88,2.23-7.9,4.54-11.9,6.77-3.48,1.94-7.14,2.9-10.81,2.9s-7.2-.93-10.64-2.8c-9.82-5.34-19.55-11.07-28.96-16.6l-3.77-2.22C6.57,95.96-.05,89.46,0,77.08c.03-5.28,.03-10.56,.04-15.83,.01-6.34,.02-12.68,.06-19.02,.04-7.6,2.68-13.64,7.86-17.98,.08-.07,.17-.14,.25-.2C10.42,7.95,18.31,3.77,18.31,3.77c0,0,4.42,9.89,4.69,10.87l5.99-3.07s8.88-5.01,13.17-7.62c4.33-2.63,8.82-3.96,13.35-3.96s8.94,1.3,13.29,3.88c10.24,6.07,19.82,11.62,29.29,16.94,8.53,4.8,12.99,12.56,12.9,22.44l-.02,1.75c-.1,10.84-.2,22.04,.09,32.96,.07,2.64-.21,5.09-.84,7.32l19.9,.91Z"/><path class="cls-2" d="M59.03,40.44c2.81,2.49,4.74,5.53,5.69,9.07,3,11.16-4.36,16.36-13.23,16.13-7.84-.2-13.95-4.33-19.4-9.55-5.18-4.94-8.73-10.87-10.82-17.74-3.01-9.9-4.01-20.02-3.62-30.4,.4,1.52,.77,3.05,1.2,4.56,.44,1.55,.87,3.1,1.4,4.63,.84,2.43,1.79,4.83,2.62,7.27,.51,1.49,1.21,1.5,2.49,.76,7.31-4.25,14.76-8.27,21.99-12.65,5.57-3.38,10.81-3.31,16.35-.03,9.77,5.79,19.59,11.49,29.49,17.06,5.42,3.05,7.86,7.47,7.81,13.64-.11,11.69-.24,23.38,.07,35.06,.21,8.1-4.65,10.99-10.83,11.94-4.91,.76-9.65-.39-14.1-2.24-7.5-3.12-14.19-7.59-19.76-13.59-.66-.71-1.2-1.52-1.79-2.28-.92-1.17-.8-1.7,.85-1.89,3.05-.35,6.07-.96,8.61-2.87,4.75-3.58,6.43-11.78,3.32-16.85-1.86-3.03-2.77-6.67-5.68-9.04-.75-.61-1.38-1.4-2.64-.98m-13.82-1.41c-4.23-.03-7.81,3.51-7.91,7.82-.11,4.38,3.65,8.3,8,8.34,4.35,.04,8.22-3.83,8.17-8.18-.05-4.52-3.6-7.95-8.26-7.98"/><path class="cls-4" d="M106.14,95.12c-1.67,1.58-3.36,1.82-4.92,2.18-7.01,1.59-14.14,2.34-21.29,2.85-2.29,.16-4.2,.93-6.1,2.02-4.12,2.37-8.24,4.74-12.39,7.05-3.9,2.17-7.94,2.15-11.8,.05-10.96-5.96-21.68-12.34-32.44-18.66-5.29-3.11-7.23-7.67-7.2-13.48,.05-11.61,.03-23.23,.09-34.84,.02-4,1.04-7.65,4.28-10.37,1.28-1.07,2.03-1.17,2.36,.78,1.93,11.44,6.51,21.75,13.89,30.68,3.42,4.14,7.82,7.37,12.14,10.57,7.34,5.45,15.2,10.07,23.68,13.46,11.68,4.67,23.78,7.57,36.45,7.57,.92,0,1.84,.08,3.24,.14"/></g></g></svg>