<svg xmlns="http://www.w3.org/2000/svg"  fill="#fff" viewBox="0 0 64 64"><g data-name="Glyph"><path d="M59 2H5a3 3 0 0 0-3 3v34a3 3 0 0 0 3 3h54a3 3 0 0 0 3-3V5a3 3 0 0 0-3-3Zm-3 34H31.923A11.121 11.121 0 0 0 9.77 36H8V8h48Z"/><path d="M33.058 28.885a1 1 0 0 0 1.278 1.278L38 28.853a10.072 10.072 0 1 0-3.636-3.636Zm10.013-16.806a8.071 8.071 0 1 1-4.4 14.833 1 1 0 0 0-.883-.1l-2.132.761.762-2.132a1 1 0 0 0-.105-.883 8.069 8.069 0 0 1 6.762-12.475Z"/><circle cx="10" cy="48" r="3"/><path d="M2.242 61a1 1 0 0 0 1 1h13.209a1 1 0 0 0 1-1 7.6 7.6 0 0 0-15.209 0Z"/><circle cx="32" cy="48" r="3"/><path d="M24.242 61a1 1 0 0 0 1 1h13.209a1 1 0 0 0 1-1 7.6 7.6 0 0 0-15.209 0Z"/><circle cx="54" cy="48" r="3"/><path d="M46.242 61a1 1 0 0 0 1 1h13.209a1 1 0 0 0 1-1 7.6 7.6 0 0 0-15.209 0zm-25.16-39.867a4.067 4.067 0 1 0-4.067-4.066 4.071 4.071 0 0 0 4.067 4.066zM41.488 23.6l5.572-2.983a.5.5 0 0 0 .006-.878l-5.572-3.081a.5.5 0 0 0-.742.438v6.063a.5.5 0 0 0 .736.441z"/></g></svg>