<svg xmlns="http://www.w3.org/2000/svg"   fill="#fff" viewBox="0 0 24 24"><path  fill="#fff" d="M21 7h-5V4c0-1.1-.9-2-2-2H3c-1.1 0-2 .9-2 2v7.4c0 1.1.9 2 2 2h1.4v2.3c0 .6.4 1 1 1 .2 0 .4-.1.6-.2L8 15v1.3c0 1.1.9 2 2 2h3.7l4.4 3.1c.2.1.4.2.6.2.6 0 1-.4 1-1v-2.3H21c1.1 0 2-.9 2-2V9c0-1.1-.9-2-2-2zM5.4 15.7v-3.3H3c-.6 0-1-.4-1-1V4c0-.6.4-1 1-1h11c.6 0 1 .4 1 1v7.4c0 .6-.4 1-1 1h-4l-4.6 3.3zm16.6.7c0 .6-.4 1-1 1h-2.4v3.3L14 17.4h-4c-.6 0-1-.4-1-1v-2.1l1.3-.9H14c1.1 0 2-.9 2-2V8h5c.6 0 1 .4 1 1v7.4z"/><path  fill="#fff" d="M11.8 10.3c0-1.6-1.3-2.9-2.8-3 .7-.1 1.2-.7 1.2-1.5s-.7-1.5-1.5-1.5-1.6.7-1.6 1.5.6 1.4 1.3 1.5c-1.5.1-2.7 1.4-2.7 3 0 .3.2.5.5.5h5c.3 0 .6-.2.6-.5zM8.1 5.8c0-.3.2-.5.5-.5s.5.2.5.5-.2.5-.5.5-.5-.2-.5-.5zm-1.3 4c.2-.9 1-1.5 2-1.5s1.7.6 2 1.5h-4z"/></svg>