<?xml version="1.0" encoding="utf-8"?>
<!-- Generator: Adobe Illustrator 27.6.1, SVG Export Plug-In . SVG Version: 6.00 Build 0)  -->
<svg version="1.1" id="Layer_2_00000025414816536884336780000015522381856058283447_"
	 xmlns="http://www.w3.org/2000/svg" xmlns:xlink="http://www.w3.org/1999/xlink" x="0px" y="0px" viewBox="0 0 438.8 402.2"
	 style="enable-background:new 0 0 438.8 402.2;" xml:space="preserve">
<style type="text/css">
	.st0{fill:#E7EAED;}
	.st1{fill:#CBD0D6;}
	.st2{opacity:0.88;fill:#FFFFFF;enable-background:new    ;}
	.st3{fill:#DBE0E8;}
	.st4{fill:#226F9D;}
	.st5{fill:#EEBBA9;}
	.st6{fill:#5A5C84;}
	.st7{fill:#464851;}
	.st8{fill:#179ABD;}
	.st9{fill:#424242;}
	.st10{fill:#FFD800;}
	.st11{fill:#D4847F;}
	.st12{fill:none;stroke:#EDBA00;stroke-miterlimit:10;}
	.st13{fill:#292727;}
	.st14{fill:#CD1E1F;}
	.st15{fill:none;stroke:#226F9D;stroke-miterlimit:10;}
	.st16{fill:#C1CBD3;}
	.st17{fill:#E9EBEE;}
	.st18{fill:#A6A8A9;}
	.st19{fill:none;stroke:#464851;stroke-miterlimit:10;}
	.st20{fill:#CDB6D0;}
	.st21{fill:#D3817C;}
	.st22{fill:#55844F;}
	.st23{fill:#D6A236;}
	.st24{fill:#608C5B;}
	.st25{fill:#A7A9AA;}
	.st26{fill:#EDBA00;}
</style>
<ellipse class="st0" cx="219.4" cy="394.1" rx="219.4" ry="8.1"/>
<rect x="294.3" y="16.4" class="st1" width="133.8" height="91.3"/>
<rect x="297.6" y="19.8" class="st2" width="127.2" height="84.5"/>
<rect x="307.1" y="29.3" class="st3" width="108.2" height="65.5"/>
<path class="st1" d="M404.5,57.6l-2,6.2v5.9h-5.2v-9.6h-6.8v-9.6l-3.2-2.6H381c0,0,0,12.8,0,12.9v19.1H378V56h-8.2l-2,2.7v-20h-10.4
	v28.9h-1.7l-0.1-12.3h-8.2v18.2l-3.5,2.5V58.2H337v-0.6h-0.6v-2.4h0.6V53h-0.6v-2.4h0.6v-2.2l-14.7-1.9v21.2l-8.8,1.9v25.1h94.8
	V57.6L404.5,57.6L404.5,57.6z"/>
<path class="st4" d="M54.7,158.3c-7.2,1-14.1,5.7-15.3,9.6c-1.2,3.8,6.7,8.4,16.3,7.6s20.8-5.3,20.8-5.3L54.7,158.3L54.7,158.3z"/>
<path class="st5" d="M147.6,113.8l2.8,5.5c0,0,9.9-6.1,11.8-6.7c2-0.7,7.9-1.1,11.2-2.8s7.1-3.4,11-4.1s7.3-2.4,7.5-3.2
	c0.2-0.7-1.1-0.3-2.5,0.1c-1.4,0.3-5.4,1.1-5.4,1.1s1.4-0.2,3.1-0.9c2-0.7,4.4-1.8,4.9-2.2c1.1-0.8,1.6-1.7,0.6-1.9
	c-1-0.2-4.6,1.5-5.2,1.8s-4.1,1.6-4.1,1.6s7-3.3,8.1-4.1s1.7-1.9,1.4-2.6s-1.9,0.3-3.7,1.3c-1.8,1.1-6.2,2.3-6.2,2.3
	s4.9-2.7,6.8-4.1c1.9-1.4,0.7-1.7-0.7-1.6c-1.4,0.1-5.4,2.3-7,2.9c-1.6,0.6-2.2,0.6-3.4,0.6c-1.2,0-1.1-2.2-3.3-1.6
	c-2.2,0.6-8.1,6.4-9.9,7.9C163.6,104.6,147.6,113.8,147.6,113.8L147.6,113.8z"/>
<path class="st6" d="M171.3,81l88.5,58.8l-7,10.5l-91.3-60.7l5.2-7.8C167.8,80.4,169.8,80,171.3,81L171.3,81z"/>
<rect x="224.4" y="97.1" transform="matrix(0.5535 -0.8328 0.8328 0.5535 -6.4297 247.4044)" class="st7" width="6.3" height="65.1"/>
<path class="st7" d="M165.7,81L193,99.1c1.8,1.2,2.3,3.6,1.1,5.4l-3.1,4.6l-33.5-22.3l3.3-4.9C161.8,80.4,164.1,79.9,165.7,81z"/>
<path class="st5" d="M146.6,110.2c5.9-2.9,10.2-5.8,12.5-8.1c2.3-2.3,5.8-4.9,9.4-6.8s10-4.5,11.3-5.2s2.1,1,0.1,3.1
	c-1.7,1.8-3.8,2.5-4.8,4.1c-1,1.6-0.8,2.5-2.7,5.4s-3.8,3.7-5.1,4.5s-18.8,9.9-18.8,9.9L146.6,110.2L146.6,110.2z"/>
<path class="st8" d="M152.1,107c0,0-9.7,2.7-13.8,4c-2.7,0.9-14.2,4-14.2,4s-9.7-13-15.5-21.2c-1.5-2.2-15.5-22.8-21-23.7
	c-11.3-1.9-17.5,8.3-12.8,17.4c1.3,2.5,24.1,36.9,26.8,39.7c5.2,5.4,10,9.2,16.4,9c7.8-0.2,35.6-12.2,35.6-12.2
	C153.7,116.5,152.1,107,152.1,107L152.1,107z"/>
<path class="st9" d="M100.6,8.4c3.3,1.8,5.4,5.6,5.3,9.4c3.2,1,4.1,6.8,2.3,9.7c2.7,0.5,4.1,2.5,4.6,4.6c0.7,2.7-0.2,5.3-2.8,6.3
	c1.7,1.6,2.5,4.1,2,6.3c-0.5,2.3-2.2,4.2-4.4,4.9c1.2,1.2,1.2,3.2,0.5,4.8c-1.5,3.5-5.8,5.6-9.5,4.5c-0.4-0.1-0.9-0.3-1.3-0.3
	c-0.8,0-1.6,0.6-2.4,1c-1.8,0.8-4,0.2-5.5-1c-1.5-1.2-2.4-3-3-4.9c-0.8-2.3-0.9-5.3,1-6.8c-2.7-0.3-5.3-2-6.7-4.3S79,37,80.1,34.5
	c0.3-0.7,0.7-1.5,0.6-2.3c-0.1-0.6-0.4-1.1-0.6-1.6c-1.8-3.8-0.4-8.8,3.2-11c-2.1-2-2.5-5.5-0.9-7.9c2-3,5.2-2.2,8.1-3.3
	C93.8,7,97.2,6.5,100.6,8.4L100.6,8.4z"/>
<path class="st9" d="M95.8,63.8c-3.8,0.8-7.5-0.9-11.1-2.5c0.8,2.5-1.6,4.8-4.7,4.6c-3.1-0.2-4.2,0.2-4.7-3.3
	c-5.3,2.1-11.2-5-9.7-8.5c0,0-7.3-7.4-6.5-10.6c1.6-7.1,6.2-13.5,12.5-17.2s14.2-4.5,21.1-2.1c4.4,1.5,8.4,4.5,10.7,8.6
	c2.5,4.5,2.5,9.9,2.3,14.9c-0.1,2.1,0.1,3.6,0.8,5.6c0.6,1.7-2.7,1.9-3.7,3.5C102.1,57.7,100.7,62.7,95.8,63.8L95.8,63.8z"/>
<path class="st5" d="M55.2,347.9c-5.4,5.4-12.8,14.2-14.1,17.9c-1.3,3.7-4.7,21.7-7.2,20.7c-2.5-1-4.9-15.2-6.1-20.9
	s0-12.5,1.5-14.9c0.6-1,3.7-3,5.8-3.1c2.2-0.1,2.8,0.3,4.7-1.7c4.4-4.8,7-11.3,10.8-18.2c7.6-13.6,15.1-28.8,24.6-38.5l18.2,15.2
	C93.3,304.5,61.5,341.5,55.2,347.9L55.2,347.9z"/>
<path class="st7" d="M37.8,378.5c-3.1,2-6.5-5-7.4-12.3c-0.4-3.2,0.6-10.2,1-13.5c0.1-1.3,0.7-2.6,0.9-3.3c0.6-1.5,2.7-1.9,2.7-1.9
	s-5.4-0.6-8,2c-2.5,2.6-11.6,8.4-11.6,8.4l1.6,2l8.9-2.2c0,0-1,4.7-1,9.1c0,2.5-2.4,6.5-0.7,10.4c1.7,3.9,3.4,8.1,4.7,11.2
	c1.3,3.1,4.8,3,6,0.5C36.6,386,37.8,378.5,37.8,378.5z"/>
<path class="st10" d="M117.3,228.7c-2.3-10.2-6.5-36.6-12.6-54.8c-0.9-2.6-1.1-11-1.1-16.9H74.9c-3.4,6.4-12,23.9-10.3,33.8
	c3.4,19.2,14.4,50.5,19.1,61.9c0.8,1.9,2.6,9.1,2.6,10.5c0,0-4.5,4.1-13.3,19.8c-5.2,9.2-8.5,18.9-17.2,34.9
	c-9.4,17.2-13.1,22.8-13.1,22.8c4.2,9.6,12.7,11.6,12.7,11.6s43.4-53.9,48.2-59.3s15.4-21,17.1-30.8
	C122,254.6,121.3,246.3,117.3,228.7L117.3,228.7z"/>
<path class="st5" d="M86.5,321.1c-1.6,11.1-1.1,31.9-1.4,39.6c-0.2,7.2-0.6,11.8,2.2,15.2s15.2,12.5,15.2,12.5
	c-1.5,1.9-13.9,0.7-19.7-2s-11.7-8.6-14.5-8.4c-2.7,0.2-0.3-6.4,2.2-11.8s1.8-19.2-0.8-27c-2.7-7.8-7.3-23.1-5-35.7l21.5-6.5
	C86.2,297.1,87.5,314.5,86.5,321.1L86.5,321.1z"/>
<path class="st7" d="M94.1,382.2c-1.8,2.6-9.9,2.8-13.2,2.1s-6.8-4.2-9.7-6.6c-1.1-0.9-2.1-2.2-2.5-2.8c-1-1.4-0.5-3.3-0.5-3.3
	s-3.1,3.8-1.9,7.4c1.2,3.6,1.1,5.9,1.2,9.5c0.1,2.3-0.2,4.9-0.2,4.9h2.6l1.5-9c0,0,2.7,2.5,4.2,4.8c1.4,2.4,3.5,4.5,7.8,4.5h20.3
	c3.4,0,3.8-2.9,0.3-5.2C100,385.9,94.1,382.2,94.1,382.2L94.1,382.2z"/>
<path class="st10" d="M94,203.9c-0.4-23.1,0.6-41.2,0.9-46.9H58.1c-1.7,4.7-4.6,12.5-7.3,18.1c-4.5,9.6-6.8,17.8-5.8,31.7
	c1,13.9,15.7,56.9,17.4,69.3c0.9,6.2-2,14.9-0.9,34.1s7.1,36,9.5,53.8c0,0,3.6,2.2,13.5-2.1c0,0,7.2-71.4,5.9-83.9
	S94.3,222,94,203.9L94,203.9z"/>
<path class="st5" d="M76.7,43.5c-0.2,2.4-3.9,14.7-6.2,18.7c-1.1,2-9.5,15-9.5,15s5.7-0.3,15.3-0.1s15.2,0.6,15.2,0.6
	s-2.7-9.7-2.3-14c0.4-4.1,1.9-8.2,1.9-8.2L76.7,43.5L76.7,43.5z"/>
<path class="st11" d="M89.4,62c0.6-3.5,1.7-6.5,1.7-6.5l-14.4-12c-0.2,1.6-1.9,7.8-3.7,12.8C77.8,59.3,83.5,61.1,89.4,62L89.4,62z"
	/>
<path class="st8" d="M101.4,103.6C98.4,93,94.6,68,89.5,68.2c-14.1,0.6-16.5-2.7-21.9-3.7c-4.7,5.9-11.3,22.6-12.2,26.5
	c-2.4,10.7-15,71.9-16,76.5c0.4-0.7,3.1-1.9,20.9,5.3c21.9,8.9,55-1.5,55-1.5s-2.7-7.1-4.1-11.8C110,155.8,103.8,117.9,101.4,103.6
	L101.4,103.6z"/>
<path class="st5" d="M183.7,141c-1-0.8-7.1-3.6-8.9-4.2s-7-0.1-9.3,0.4c-0.4,0.1-0.8,0.2-1.4,0.3c1.4,1.2,3,2.4,4.6,3.5
	c1-0.1,2.2-0.3,2.8-0.4c1-0.2,3.2,0,4.1,0c0.9,0.1,4.2,1.5,6.3,1.7c1.4,0.1,2.2-0.1,2.3-0.5h0v0v-0.2
	C184.1,141.4,183.9,141.2,183.7,141L183.7,141z"/>
<path class="st5" d="M178.1,148.1c1.2,1.4,2.5,1.4,3,0.6c0.5-0.7-3.2-5.1-4.8-6.7c-0.8-0.8-3.4-2.6-4.8-3.6
	c-2.9-2.2-7.4-1.6-9.8-1.1c-3.6,0.8-5.6,1.1-9.5,1c-0.7,0-15.9-3.8-16.2-3.9c-4.6,1.8-2.6,8.9-3.8,10.4c0,0,12.8,1.1,14.8,2.1
	c2.2,1,4,5,11.2,2.3c2.4-0.9,4.9-1.3,6.4-1.1c1.5,0.1,3.4,1.2,4.7,2.4s2.6,0.9,2.5-0.1c0-0.4-0.4-0.9-0.9-1.5
	c-0.3-0.4-0.7-0.8-1-1.1c-0.4-0.5-2.9-2.3-2.9-2.3s2.2,0.9,2.7,1.2c0.4,0.3,1.7,1.2,2.3,1.8c0.8,0.8,1.9,2.3,2.8,2.6
	c0.6,0.2,1.9-0.2,1.1-1.6c-0.8-1.4-1.4-2.1-2.1-3c-0.4-0.5-1.7-1.9-2.6-2.6c-1.3-0.9-2.4-1.9-2.4-1.9c0.8,0,3.7,1.6,4.3,1.8
	S176.8,146.7,178.1,148.1L178.1,148.1z"/>
<path class="st8" d="M144.8,135.2c0,0-7.9-1.4-11.5-2.4c-2.7-0.8-22.4-7-22.4-7s-5.2-15.4-8.2-25C101.8,98.2,95,74.3,90,71.7
	c-10.2-5.3-19.2,2.5-17.5,12.6c0.5,2.8,11.8,42.4,13.2,46c4.3,11.2,8.1,13.7,14.3,15.4c12.9,3.6,40.3,7.8,40.3,7.8
	C140.7,146,144.8,135.2,144.8,135.2L144.8,135.2z"/>
<path class="st8" d="M143.2,135.3c0,0-6.3-1.5-9.9-2.5c-2.7-0.8-22.4-7-22.4-7s-5.2-15.4-8.2-25C101.9,98.2,95,74.3,90,71.7"/>
<path class="st8" d="M76.1,101.6c0.8,2.7,7.8,25.2,9.5,28.7c3.3,6.8,4.3,13.1,14.3,15.4c13.1,2.9,40.4,7.8,40.4,7.8"/>
<path class="st12" d="M84.5,361.8c0,0,7.2-71.4,5.9-83.9s3.9-55.9,3.6-74"/>
<path class="st12" d="M61.5,302.2c1.3,23.9,7.2,44,9.5,61.8"/>
<path class="st5" d="M102.5,21.8c3.3,5.3,1.8,11.1,1.3,14.7c-0.5,3.6,0.5,5.1-0.1,9.4c-0.8,6.1-2.7,9.8-5.2,12.4
	c-1.4,1.4-6.7,1.6-11.4-0.7c-3.6-1.7-7.9-4.8-9.5-7.5c-2.1-3.6-3.8-8.4-4.5-11.5c-0.7-3.1-3.2-10.4,0.8-14.9
	c4-4.5,11.6-11.2,19-10.1C100.5,14.6,101.1,19.5,102.5,21.8L102.5,21.8z"/>
<path class="st13" d="M92.8,36c0,1.1,0.6,1.9,1.2,1.9s1.1-0.9,1.1-2S94.5,34,93.9,34S92.8,34.9,92.8,36z"/>
<path class="st13" d="M102.4,35.7c0,1.1,0.4,1.9,0.8,1.9c0.4,0,0.8-0.9,0.8-2c0-1.1-0.4-1.9-0.8-1.9
	C102.7,33.8,102.4,34.7,102.4,35.7z"/>
<path class="st5" d="M74.8,35.7c-2.6-2.5-6.6-1.8-6.1,1.9c0.4,3.1,2.1,3.6,4.7,6.1c1.8,1.7,3.3,0.7,3.3-0.1
	C76.9,41.1,76.4,37.2,74.8,35.7z"/>
<path class="st11" d="M99.4,36.3c0.7,0.9,1.4,1.8,2,2.8c0.7,0.9,1.2,1.9,1.8,2.9l0.4,0.7l0.2,0.4c0.1,0.2,0.1,0.3,0.2,0.5
	c0,0.2,0.1,0.3,0.1,0.5c0,0.2,0,0.4-0.1,0.5c-0.1,0.3-0.4,0.5-0.6,0.7c-0.9,0.7-1.5,0.8-2.6,0.9c0,0-0.7-0.1-0.2-0.4
	c0.5-0.2,1.8-0.7,2.2-1c0.5-0.4,0.8-0.7,0.7-1.1c-0.1-0.1-0.1-0.2-0.1-0.3l-0.2-0.4l-0.4-0.7c-0.6-1-1.2-1.9-1.7-2.9
	C100.4,38.4,99.9,37.4,99.4,36.3L99.4,36.3z"/>
<path class="st11" d="M72.8,36.2c-1.3-0.9-2.5-0.3-2.7,0.9c-0.2,1.2,0,0.2,0.9-0.2c0.6-0.3,1.6,1,2,2c0.6,1.7,1.1,3.3,2.2,3.4
	c1.3,0.1,0.5-1.2-0.1-2.7S73.9,36.9,72.8,36.2L72.8,36.2z"/>
<path class="st14" d="M102.6,48.4c-1.4,0.7-4.5,0.1-6.6-0.3c0,0,2.3,3.6,4.9,3.4C101.8,51.4,102.6,48.4,102.6,48.4L102.6,48.4z"/>
<path class="st13" d="M95.2,28.3c0,0-0.9-1.4-1.5-1.5c-1.5-0.2-2.7,0.1-3.9,0.2s-2.2,1.4-2.7,2.4c0,0,1.2-1.2,2.7-1.2
	C91.1,28.1,92,28,95.2,28.3L95.2,28.3z"/>
<path class="st13" d="M100.9,28.4c0,0,0.7-1.5,1-1.6c0.9-0.4,1.6-0.2,2.2-0.2c0.7,0,1.2,1.1,1.3,2c0,0-0.6-1-1.4-0.9
	C103.3,27.8,102.8,27.8,100.9,28.4z"/>
<path class="st9" d="M47.5,43.5c0-2.7,2-5.2,4.5-6.3c-1.4-1.5-2.1-3.1-2.1-5.3c0-2.3,2-4,3.4-4.9c-3.9-4.2,1-9.1,4.2-9.2
	c0.2-4.5,3.3-6.4,6-6.6c1.3-5.1,6.1-7.1,10.4-5.7c0.8-1.6,2.8-3.5,6.6-3.2C83.3,2.5,84.3,4,84.3,4c2.5-2.5,6.1-2.5,8.2,0.3
	c2.4-0.4,5,0.2,6.9,1.6c2.3,1.7,3.4,4.2,2.1,6.8c0.5,0.5,0.9,1.1,1.1,1.8c0.2,1.2-0.4,2.5-1.3,3.3c-1.1,1-2.7,1.5-4.2,1.2
	c-0.7-0.1-1.4-0.4-2-0.8c-2.3,3.1-5.6,3.1-7.5,1.7c0.2,3.9-0.8,6-4.4,6.8c1.6,2.2,0.8,5.7-1.3,7.1c0.5,0.7,0.8,1.6,0.9,2.6
	c0.1,2.5-2,4.9-4.5,5.2c1.6,0.9,2.5,2.9,2,4.6c-0.5,1.8-2.2,3.1-4,3c2.1,2,2.2,5.6,0.3,7.8c-1.8,2-5.2,2.3-7.4,0.8
	c-1.1,0.9-2.5,1.4-3.9,1.4c-2.9-0.2-5.5-2.8-5.6-5.7c-1.5,1-3.5,1-5,0c-1.5-0.9-2.3-2.8-2.1-4.5C49.8,49,47.5,46.3,47.5,43.5
	L47.5,43.5z"/>
<path class="st9" d="M86.1,29.2c0.3,1.5,0,3.2-1,4.3c1.8,1.7,1.8,4.9-0.1,6.5c1,1,1.9,2.2,2.2,3.7c0.3,1.4-0.1,3-1.2,3.9
	c1.6,1,2.1,3.2,1.8,5.1c-0.5,2.8-2.4,5.4-5,6.7s-5.8,1.1-8.3-0.3c-1.5,1.6-4.2,1.8-6.2,0.8s-3.3-3-4-5.1s-0.7-4.4-0.6-6.6
	c0.3-5.4,1.6-11.2,5.8-14.7c0.2-0.2,0.5-0.4,0.6-0.7c0.2-0.3,0.1-0.7,0.1-1c-0.1-2,0.6-3.9,1.8-5.5c1.3-1.9,3.3-3.5,5.6-3.3
	c1.8,0.1,4.2,1.2,5.8,2C84.7,25.9,85.7,27.7,86.1,29.2L86.1,29.2z"/>
<path class="st15" d="M99.3,128c0,0,5.6-2.3,11.5-2.3"/>
<path class="st15" d="M116.4,119.5c0,0,4.4-3.1,10.6-4.4"/>
<polygon class="st16" points="322.4,240.8 256.2,249.9 270.8,257.6 331.7,244.7 "/>
<polygon class="st17" points="323.4,243.6 265.2,256 261.3,234.8 319.5,222.4 "/>
<polygon class="st16" points="322,235.8 263.8,248.2 263.6,247.2 321.8,234.7 "/>
<polygon class="st16" points="320.4,227.4 262.2,239.9 262.1,239.6 320.3,227.1 "/>
<polygon class="st16" points="267.3,253.8 289.1,248.1 266.7,251.6 "/>
<polygon class="st16" points="320.8,230.3 309.9,234.6 321.2,232.1 "/>
<polygon class="st18" points="331.7,249.6 270.8,266.1 270.8,257.6 331.7,244.7 "/>
<polygon class="st6" points="138.4,164.6 138.4,223.7 278.1,223.7 278.1,223.7 278.1,164.6 "/>
<path class="st18" d="M138.4,164.6v-1.1c0-1.9,1.5-3.4,3.4-3.4h136.4v4.5L138.4,164.6L138.4,164.6z"/>
<rect x="138.4" y="223.7" class="st3" width="139.7" height="169"/>
<rect x="138.4" y="383.9" class="st6" width="139.7" height="8.8"/>
<path class="st18" d="M138.4,241v-42.2h20.4c3.9,0,7.1,3.2,7.1,7.1v27.9c0,3.9-3.2,7.1-7.1,7.1L138.4,241L138.4,241z"/>
<line class="st19" x1="138.4" y1="169.5" x2="278.1" y2="169.5"/>
<polygon class="st16" points="176.7,355.6 171.1,345.1 245.4,345.1 245.4,345.1 239.8,355.6 "/>
<polygon class="st18" points="138.4,344.9 138.4,347 278.1,347 278.1,347 278.1,344.9 "/>
<polygon class="st16" points="176.7,319.7 171.1,309.2 245.4,309.2 245.4,309.2 239.8,319.7 "/>
<polygon class="st18" points="138.4,309 138.4,311.1 278.1,311.1 278.1,311.1 278.1,309 "/>
<polygon class="st16" points="176.7,284.9 171.1,274.5 245.4,274.5 245.4,274.5 239.8,284.9 "/>
<polygon class="st18" points="138.4,274.2 138.4,276.4 278.1,276.4 278.1,276.4 278.1,274.2 "/>
<rect x="176.8" y="178.7" class="st7" width="36.9" height="6.4"/>
<rect x="221.8" y="178.8" class="st19" width="42.2" height="36.3"/>
<rect x="226.8" y="183.1" class="st18" width="32.2" height="27.6"/>
<polygon class="st7" points="198.9,157 173.4,158.3 173.1,154 195.7,150.4 "/>
<polygon class="st6" points="230.6,150.4 202.1,150.4 155.4,157.7 155.4,160.1 230.6,160.1 "/>
<path class="st18" d="M246.4,131.4h22.9c4.9,0,8.9,4,8.9,8.9v19.9h-51.2v-9.2C226.9,140.1,235.6,131.3,246.4,131.4L246.4,131.4z"/>
<path class="st6" d="M264.6,148.8c0,2.9-2.4,5.4-5.4,5.4s-5.4-2.4-5.4-5.4s2.4-5.4,5.4-5.4S264.6,145.8,264.6,148.8z"/>
<path class="st18" d="M186.5,187.5h2.9c0.7,0,1.3,0.6,1.3,1.3v2.9c0,0.7-0.6,1.3-1.3,1.3h-2.9c-0.7,0-1.3-0.6-1.3-1.3v-2.9
	C185.3,188.1,185.8,187.5,186.5,187.5z"/>
<path class="st18" d="M194.1,187.5h2.9c0.7,0,1.3,0.6,1.3,1.3v2.9c0,0.7-0.6,1.3-1.3,1.3h-2.9c-0.7,0-1.3-0.6-1.3-1.3v-2.9
	C192.9,188.1,193.4,187.5,194.1,187.5z"/>
<path class="st18" d="M201.7,187.5h2.9c0.7,0,1.3,0.6,1.3,1.3v2.9c0,0.7-0.6,1.3-1.3,1.3h-2.9c-0.7,0-1.3-0.6-1.3-1.3v-2.9
	C200.5,188.1,201,187.5,201.7,187.5z"/>
<path class="st18" d="M209.3,187.5h2.9c0.7,0,1.3,0.6,1.3,1.3v2.9c0,0.7-0.6,1.3-1.3,1.3h-2.9c-0.7,0-1.3-0.6-1.3-1.3v-2.9
	C208.1,188.1,208.6,187.5,209.3,187.5z"/>
<path class="st18" d="M186.5,194.7h2.9c0.7,0,1.3,0.6,1.3,1.3v2.9c0,0.7-0.6,1.3-1.3,1.3h-2.9c-0.7,0-1.3-0.6-1.3-1.3V196
	C185.3,195.3,185.8,194.7,186.5,194.7z"/>
<path class="st18" d="M194.1,194.7h2.9c0.7,0,1.3,0.6,1.3,1.3v2.9c0,0.7-0.6,1.3-1.3,1.3h-2.9c-0.7,0-1.3-0.6-1.3-1.3V196
	C192.9,195.3,193.4,194.7,194.1,194.7z"/>
<path class="st18" d="M201.7,194.7h2.9c0.7,0,1.3,0.6,1.3,1.3v2.9c0,0.7-0.6,1.3-1.3,1.3h-2.9c-0.7,0-1.3-0.6-1.3-1.3V196
	C200.5,195.3,201,194.7,201.7,194.7z"/>
<path class="st18" d="M209.3,194.7h2.9c0.7,0,1.3,0.6,1.3,1.3v2.9c0,0.7-0.6,1.3-1.3,1.3h-2.9c-0.7,0-1.3-0.6-1.3-1.3V196
	C208.1,195.3,208.6,194.7,209.3,194.7z"/>
<path class="st18" d="M186.5,201.9h2.9c0.7,0,1.3,0.6,1.3,1.3v2.9c0,0.7-0.6,1.3-1.3,1.3h-2.9c-0.7,0-1.3-0.6-1.3-1.3v-2.9
	C185.3,202.5,185.8,201.9,186.5,201.9z"/>
<path class="st20" d="M194.1,201.9h2.9c0.7,0,1.3,0.6,1.3,1.3v2.9c0,0.7-0.6,1.3-1.3,1.3h-2.9c-0.7,0-1.3-0.6-1.3-1.3v-2.9
	C192.9,202.5,193.4,201.9,194.1,201.9z"/>
<path class="st21" d="M201.7,201.9h2.9c0.7,0,1.3,0.6,1.3,1.3v2.9c0,0.7-0.6,1.3-1.3,1.3h-2.9c-0.7,0-1.3-0.6-1.3-1.3v-2.9
	C200.5,202.5,201,201.9,201.7,201.9z"/>
<path class="st21" d="M209.3,201.9h2.9c0.7,0,1.3,0.6,1.3,1.3v2.9c0,0.7-0.6,1.3-1.3,1.3h-2.9c-0.7,0-1.3-0.6-1.3-1.3v-2.9
	C208.1,202.5,208.6,201.9,209.3,201.9z"/>
<rect x="365.8" y="337.1" class="st6" width="2.4" height="56.5"/>
<path class="st8" d="M400.5,103.5c-3.4,4.3-6,6.9-9,10.5c-29.4,35.5-20.5,64.2-20.5,64.2c0.1,0,0.1,0,0.2,0
	c-0.1,0.2-0.1,0.4-0.2,0.6c-5.4,19.4-3.5,82.3-3.5,82.7h0.7c0-0.5-1.8-63.2,3.5-82.5c0.1-0.3,0.1-0.5,0.2-0.8
	c16.1-12.1,24.2-41.5,26.5-61.5C399.2,108.9,400.5,103.5,400.5,103.5L400.5,103.5z"/>
<path class="st22" d="M372,219.1C372,219.1,371.9,219.1,372,219.1c0,0-5.6-25.4,21.9-49.8c2.4-2.1,6.7-4.9,9.1-7.9
	c0,0-1.1,3.4-1.8,8.2c-1.6,11.9-7.8,42.7-28.5,49.2c-0.1,0.3-0.1,0.6-0.2,0.9c-4.2,18.1-4.4,51.8-4.4,52.2l-0.6,0
	c0-0.4,0.3-34.2,4.5-52.4C371.9,219.5,371.9,219.3,372,219.1L372,219.1z"/>
<path class="st8" d="M362.7,150.1C362.7,150.1,362.7,150.1,362.7,150.1c0,0,14.2-21.5-4.9-71.5c-1.5-3.8-3.1-7.3-4.4-12.5
	c0,0-0.1,4.6-1.3,12c-3.1,19.1-7.4,56.1,9.8,71.8c0,0.3,0.1,0.6,0.1,0.9c2.5,22.2,4.3,111.2,4.3,112.1l0.8,0
	c0-0.9-1.8-89.9-4.3-112.2C362.7,150.6,362.7,150.3,362.7,150.1L362.7,150.1z"/>
<path class="st23" d="M358.8,219.2C358.8,219.2,358.8,219.2,358.8,219.2c0,0,6.1-20.8-21.5-43.1c-4.1-3.3-8.6-6.1-8.6-6.1
	s2.6,5.1,4.5,11.4c3.4,11.3,9.3,37.2,24.8,37.7c0.1,0.2,0.2,0.4,0.2,0.6c5,12.2,7.1,43.4,7.1,43.6l0.8,0c0-0.3-2.1-31.5-7.1-43.9
	C358.9,219.4,358.9,219.3,358.8,219.2L358.8,219.2z"/>
<path class="st24" d="M360,185.1C360,185.1,360,185.1,360,185.1c0,0,2.8-34.3-27.6-61.8c-3.2-2.9-5.5-4.8-10-8.4c0,0,2,5.2,4.4,13.9
	c4.7,17,9.6,36.2,32.3,55.9c0.1,0.4,0.2,0.8,0.3,1.1c5,21.8,5.6,72.7,5.6,73.3l0.8,0c0-0.5-0.6-51.6-5.7-73.4
	C360.1,185.6,360.1,185.3,360,185.1L360,185.1z"/>
<path class="st18" d="M366.4,357.1c22.1,0,39-19.8,35.3-41.6c-0.6-3.8-1.5-7.5-2.6-11.2l-13.8-45.9c-0.6-2-2.5-3.4-4.5-3.4h-28.6
	c-2.1,0-3.9,1.4-4.5,3.4l-13.8,45.9c-1.1,3.7-2,7.5-2.6,11.2C327.3,337.3,344.3,357.1,366.4,357.1L366.4,357.1L366.4,357.1z"/>
<path class="st25" d="M382.6,277l-3.4-11.2c-0.5-1.7-2-2.8-3.8-2.8h-18.1c-1.7,0-3.3,1.1-3.8,2.8l-3.4,11.2c-0.5,1.8-1,3.6-1.3,5.5
	c-1.9,10.8,6.5,20.7,17.5,20.7l0,0c11,0,19.4-9.9,17.5-20.7C383.6,280.7,383.1,278.8,382.6,277L382.6,277z"/>
<path class="st6" d="M400.1,335.5c-23,3-67.6,0-67.6,0l-0.2,2.1c0,0,44.7,3,67.9,0L400.1,335.5z"/>
<polygon class="st6" points="334.4,336 332.5,336 326.9,395.1 328.8,395.1 "/>
<polygon class="st6" points="398.2,336 400.1,336 405.7,395.1 403.8,395.1 "/>
<circle class="st1" cx="214.6" cy="33.8" r="33.8"/>
<circle class="st2" cx="214.6" cy="33.8" r="29.6"/>
<circle class="st1" cx="214.6" cy="33.8" r="3.2"/>
<path class="st1" d="M228,24L228,24c-0.4-0.5-1.1-0.7-1.7-0.3l-11.8,7.9c-0.6,0.4-0.7,1.2-0.3,1.7l0.5,0.7c0.4,0.6,1.2,0.7,1.8,0.3
	l11.3-8.6C228.3,25.3,228.4,24.5,228,24L228,24z"/>
<path class="st1" d="M214.5,9.1L214.5,9.1c-0.4,0-0.7,0.3-0.7,0.7l-0.7,23.9h2.8l-0.7-23.9C215.2,9.4,214.9,9.1,214.5,9.1z"/>
<g id="Layer_1-2_00000093870773023647675690000014658500530793447310_">
	<path class="st4" d="M178.8,259.6c-0.8,0-1.5-0.2-2.1-0.5c-0.6-0.4-1-0.8-1.4-1.5c-0.3-0.6-0.5-1.4-0.5-2.2c0-0.8,0.2-1.6,0.5-2.2
		c0.3-0.6,0.8-1.1,1.4-1.5c0.6-0.4,1.3-0.5,2.1-0.5c1,0,1.8,0.3,2.5,0.8s1,1.2,1.2,2.1h-1.9c-0.1-0.4-0.3-0.7-0.6-1
		c-0.3-0.2-0.7-0.3-1.2-0.3c-0.5,0-0.8,0.1-1.2,0.3c-0.3,0.2-0.6,0.5-0.7,0.9c-0.2,0.4-0.2,0.9-0.2,1.4c0,0.6,0.1,1,0.2,1.4
		s0.4,0.7,0.7,0.9s0.7,0.3,1.2,0.3c0.5,0,0.9-0.1,1.2-0.3c0.3-0.2,0.5-0.5,0.6-0.9h1.9c-0.2,0.9-0.6,1.5-1.2,2
		C180.7,259.3,179.8,259.6,178.8,259.6L178.8,259.6z"/>
	<path class="st4" d="M183.2,259.4l3-8.1h2l3,8.1h-1.8l-2.1-6.2l-2.1,6.2H183.2L183.2,259.4z M184.5,257.7l0.5-1.3h4.3l0.5,1.3
		H184.5L184.5,257.7z"/>
	<path class="st4" d="M193.2,259.4v-6.7h-2.4v-1.4h6.5v1.4h-2.4v6.7H193.2L193.2,259.4z"/>
	<path class="st8" d="M202.7,259.4v-6.7h-2.4v-1.4h6.5v1.4h-2.4v6.7H202.7L202.7,259.4z"/>
	<path class="st8" d="M211.1,259.6c-0.6,0-1.2-0.1-1.7-0.4c-0.5-0.2-0.9-0.6-1.2-1.1c-0.3-0.5-0.4-1.1-0.4-1.8v-5h1.7v5
		c0,0.4,0.1,0.7,0.2,0.9c0.1,0.3,0.3,0.4,0.5,0.6c0.2,0.1,0.5,0.2,0.9,0.2c0.3,0,0.6-0.1,0.9-0.2c0.2-0.1,0.4-0.3,0.5-0.6
		c0.1-0.3,0.2-0.6,0.2-0.9v-5h1.7v5c0,0.7-0.2,1.4-0.5,1.8c-0.3,0.5-0.7,0.9-1.2,1.1C212.3,259.4,211.7,259.6,211.1,259.6
		L211.1,259.6z"/>
	<path class="st8" d="M217.9,259.4v-6.7h-2.4v-1.4h6.5v1.4h-2.4v6.7H217.9L217.9,259.4z"/>
	<path class="st8" d="M226.6,259.6c-0.8,0-1.5-0.2-2.1-0.5c-0.6-0.4-1.1-0.9-1.4-1.5c-0.3-0.6-0.5-1.4-0.5-2.2
		c0-0.8,0.2-1.6,0.5-2.2c0.3-0.6,0.8-1.1,1.4-1.5c0.6-0.4,1.3-0.5,2.1-0.5s1.5,0.2,2.1,0.5c0.6,0.4,1.1,0.9,1.4,1.5
		c0.3,0.6,0.5,1.4,0.5,2.2c0,0.8-0.2,1.6-0.5,2.2c-0.3,0.6-0.8,1.1-1.4,1.5C228.1,259.4,227.4,259.6,226.6,259.6z M226.6,258
		c0.5,0,0.9-0.1,1.2-0.3c0.3-0.2,0.6-0.5,0.8-0.9c0.2-0.4,0.3-0.9,0.3-1.4s-0.1-1-0.3-1.4c-0.2-0.4-0.4-0.7-0.8-0.9
		s-0.7-0.3-1.2-0.3s-0.9,0.1-1.2,0.3c-0.3,0.2-0.6,0.5-0.8,0.9s-0.3,0.9-0.3,1.4s0.1,1,0.3,1.4c0.2,0.4,0.4,0.7,0.8,0.9
		C225.7,257.9,226.1,258,226.6,258z"/>
	<path class="st8" d="M231.9,259.4v-8.1h3.2c0.7,0,1.2,0.1,1.6,0.3c0.4,0.2,0.8,0.5,1,0.9c0.2,0.4,0.3,0.8,0.3,1.3
		c0,0.4-0.1,0.8-0.3,1.2c-0.2,0.4-0.5,0.7-1,0.9c-0.4,0.2-1,0.3-1.7,0.3h-1.4v3.1L231.9,259.4L231.9,259.4z M233.7,255.1h1.3
		c0.4,0,0.8-0.1,1-0.3c0.2-0.2,0.3-0.5,0.3-0.8c0-0.4-0.1-0.6-0.3-0.8c-0.2-0.2-0.5-0.3-1-0.3h-1.3V255.1z M236.1,259.4l-1.6-3.6
		h1.9l1.7,3.6H236.1z"/>
	<path class="st8" d="M239.4,259.4v-8.1h1.7v8.1C241.1,259.4,239.4,259.4,239.4,259.4z"/>
	<path class="st8" d="M242.1,259.4l3-8.1h2l3,8.1h-1.8l-2.1-6.2l-2.1,6.2H242.1L242.1,259.4z M243.4,257.7l0.5-1.3h4.3l0.5,1.3
		H243.4L243.4,257.7z"/>
	<path class="st8" d="M251.1,259.4v-8.1h1.7v6.8h3.5v1.3C256.3,259.4,251.1,259.4,251.1,259.4z"/>
	<path class="st8" d="M260.2,259.6c-0.6,0-1.1-0.1-1.6-0.3s-0.8-0.5-1.1-0.9c-0.3-0.4-0.4-0.9-0.4-1.4h1.9c0,0.2,0.1,0.4,0.2,0.6
		s0.3,0.3,0.4,0.4c0.2,0.1,0.4,0.1,0.7,0.1c0.2,0,0.4,0,0.6-0.1c0.2-0.1,0.3-0.2,0.4-0.3c0.1-0.1,0.1-0.3,0.1-0.5
		c0-0.2-0.1-0.4-0.2-0.5c-0.1-0.1-0.3-0.3-0.4-0.4c-0.2-0.1-0.4-0.2-0.6-0.3c-0.2-0.1-0.5-0.2-0.8-0.3c-0.6-0.2-1.1-0.5-1.5-0.8
		c-0.3-0.4-0.5-0.8-0.5-1.4c0-0.5,0.1-0.9,0.4-1.3c0.2-0.4,0.6-0.6,1-0.8c0.4-0.2,0.9-0.3,1.5-0.3s1,0.1,1.5,0.3
		c0.4,0.2,0.8,0.5,1,0.8c0.3,0.4,0.4,0.8,0.4,1.3H261c0-0.2-0.1-0.3-0.1-0.5c-0.1-0.1-0.2-0.3-0.4-0.3c-0.2-0.1-0.3-0.1-0.5-0.1
		c-0.2,0-0.3,0-0.5,0.1c-0.1,0.1-0.3,0.1-0.3,0.3c-0.1,0.1-0.1,0.3-0.1,0.4s0,0.3,0.1,0.4c0.1,0.1,0.2,0.2,0.4,0.3
		c0.2,0.1,0.3,0.2,0.6,0.2c0.2,0.1,0.4,0.2,0.7,0.2c0.4,0.1,0.8,0.3,1.1,0.5c0.3,0.2,0.6,0.4,0.8,0.7s0.3,0.7,0.3,1.2
		c0,0.4-0.1,0.8-0.3,1.2c-0.2,0.4-0.6,0.7-1,0.9S260.8,259.6,260.2,259.6L260.2,259.6z"/>
	<path d="M216,264.4v-2.6h0.4v2.6H216z"/>
	<path d="M216.9,264.4v-2.6h0.4l1.3,2v-2h0.4v2.6h-0.4l-1.3-2v2H216.9z"/>
	<path d="M219.5,264.4v-2.6h0.4l1.3,2v-2h0.4v2.6h-0.4l-1.3-2v2H219.5z"/>
	<path d="M223.4,264.5c-0.3,0-0.5-0.1-0.7-0.2c-0.2-0.1-0.3-0.3-0.5-0.5c-0.1-0.2-0.2-0.4-0.2-0.7s0.1-0.5,0.2-0.7
		c0.1-0.2,0.3-0.4,0.5-0.5c0.2-0.1,0.4-0.2,0.7-0.2s0.5,0.1,0.7,0.2c0.2,0.1,0.3,0.3,0.4,0.5s0.2,0.4,0.2,0.7s-0.1,0.5-0.2,0.7
		s-0.3,0.4-0.4,0.5C223.8,264.4,223.6,264.5,223.4,264.5z M223.4,264.1c0.2,0,0.3,0,0.5-0.1c0.1-0.1,0.2-0.2,0.3-0.4
		c0.1-0.2,0.1-0.3,0.1-0.5s0-0.4-0.1-0.5c-0.1-0.2-0.2-0.3-0.3-0.4c-0.1-0.1-0.3-0.1-0.5-0.1s-0.3,0-0.5,0.1
		c-0.1,0.1-0.2,0.2-0.3,0.4c-0.1,0.2-0.1,0.3-0.1,0.5s0,0.4,0.1,0.5c0.1,0.2,0.2,0.3,0.3,0.4C223,264.1,223.2,264.1,223.4,264.1z"/>
	<path d="M225.8,264.4l-1-2.6h0.4l0.8,2.2l0.8-2.2h0.4l-1,2.6H225.8L225.8,264.4z"/>
	<path d="M227,264.4l1-2.6h0.4l1,2.6H229l-0.8-2.2l-0.8,2.2H227z M227.5,263.8l0.1-0.3h1.2l0.1,0.3H227.5L227.5,263.8z"/>
	<path d="M230.1,264.4v-2.3h-0.8v-0.3h1.9v0.3h-0.8v2.3H230.1z"/>
	<path d="M231.6,264.4v-2.6h0.4v2.6H231.6z"/>
	<path d="M233.7,264.5c-0.3,0-0.5-0.1-0.7-0.2c-0.2-0.1-0.3-0.3-0.5-0.5s-0.2-0.4-0.2-0.7s0.1-0.5,0.2-0.7s0.3-0.4,0.5-0.5
		c0.2-0.1,0.4-0.2,0.7-0.2s0.5,0.1,0.7,0.2c0.2,0.1,0.3,0.3,0.4,0.5c0.1,0.2,0.2,0.4,0.2,0.7s-0.1,0.5-0.2,0.7
		c-0.1,0.2-0.3,0.4-0.4,0.5C234.2,264.4,234,264.5,233.7,264.5z M233.7,264.1c0.2,0,0.3,0,0.5-0.1c0.1-0.1,0.2-0.2,0.3-0.4
		c0.1-0.2,0.1-0.3,0.1-0.5s0-0.4-0.1-0.5c-0.1-0.2-0.2-0.3-0.3-0.4c-0.1-0.1-0.3-0.1-0.5-0.1s-0.3,0-0.5,0.1
		c-0.1,0.1-0.2,0.2-0.3,0.4c-0.1,0.2-0.1,0.3-0.1,0.5s0,0.4,0.1,0.5c0.1,0.2,0.2,0.3,0.3,0.4C233.4,264.1,233.5,264.1,233.7,264.1z"
		/>
	<path d="M235.4,264.4v-2.6h0.4l1.3,2v-2h0.4v2.6h-0.4l-1.3-2v2H235.4z"/>
	<path d="M239.8,264.5c-0.2,0-0.3,0-0.5-0.1s-0.2-0.2-0.3-0.3c-0.1-0.1-0.1-0.3-0.1-0.4c0-0.1,0-0.2,0.1-0.4s0.1-0.2,0.2-0.3
		c0.1-0.1,0.2-0.1,0.4-0.2l0.1,0l0.2,0.2l-0.2,0.1c-0.2,0.1-0.3,0.1-0.4,0.2s-0.1,0.2-0.1,0.3c0,0.1,0,0.2,0.1,0.3
		c0,0.1,0.1,0.1,0.2,0.2c0.1,0,0.2,0.1,0.3,0.1c0.1,0,0.3,0,0.4-0.1c0.1-0.1,0.2-0.2,0.3-0.3c0-0.1,0.1-0.1,0.2-0.2
		c0.1-0.1,0.1-0.2,0.2-0.3l0.1-0.2h0.4l-0.2,0.3c-0.1,0.1-0.1,0.2-0.2,0.3c-0.1,0.1-0.1,0.2-0.2,0.3c-0.1,0.2-0.3,0.3-0.5,0.4
		C240.2,264.4,240,264.5,239.8,264.5L239.8,264.5z M241,264.4l-1.4-1.4c-0.1-0.1-0.2-0.2-0.2-0.3c0-0.1-0.1-0.2-0.1-0.3
		c0-0.1,0-0.2,0.1-0.3c0.1-0.1,0.1-0.2,0.2-0.2c0.1-0.1,0.2-0.1,0.4-0.1c0.1,0,0.3,0,0.4,0.1s0.2,0.1,0.2,0.2
		c0.1,0.1,0.1,0.2,0.1,0.3h-0.4c0-0.1,0-0.2-0.1-0.2c-0.1-0.1-0.1-0.1-0.2-0.1c-0.1,0-0.2,0-0.3,0.1s-0.1,0.1-0.1,0.2
		c0,0.1,0,0.1,0.1,0.2c0,0.1,0.1,0.2,0.2,0.2l1.6,1.6L241,264.4L241,264.4z"/>
	<path d="M242.8,264.4v-2.6h1.7v0.3h-1.3v0.8h1.2v0.3h-1.2v0.9h1.3v0.3H242.8z"/>
	<path d="M244.9,264.4v-2.6h0.8c0.3,0,0.6,0.1,0.8,0.2c0.2,0.1,0.3,0.3,0.4,0.5s0.1,0.4,0.1,0.7s0,0.5-0.1,0.7
		c-0.1,0.2-0.2,0.3-0.4,0.5s-0.5,0.2-0.8,0.2H244.9L244.9,264.4z M245.3,264.1h0.4c0.2,0,0.4,0,0.6-0.1c0.1-0.1,0.2-0.2,0.3-0.3
		c0.1-0.1,0.1-0.3,0.1-0.5s0-0.4-0.1-0.5c-0.1-0.1-0.2-0.3-0.3-0.3c-0.1-0.1-0.3-0.1-0.6-0.1h-0.4V264.1z"/>
	<path d="M248.5,264.5c-0.2,0-0.4,0-0.5-0.1s-0.3-0.2-0.4-0.3c-0.1-0.2-0.1-0.3-0.1-0.6v-1.6h0.4v1.6c0,0.2,0,0.3,0.1,0.4
		c0.1,0.1,0.1,0.2,0.2,0.2c0.1,0,0.2,0.1,0.3,0.1c0.1,0,0.2,0,0.3-0.1c0.1,0,0.2-0.1,0.2-0.2c0.1-0.1,0.1-0.2,0.1-0.4v-1.6h0.4v1.6
		c0,0.2,0,0.4-0.1,0.6c-0.1,0.2-0.2,0.3-0.4,0.3S248.7,264.5,248.5,264.5L248.5,264.5z"/>
	<path d="M251.2,264.5c-0.3,0-0.5-0.1-0.7-0.2c-0.2-0.1-0.3-0.3-0.4-0.5c-0.1-0.2-0.2-0.4-0.2-0.7s0.1-0.5,0.2-0.7
		c0.1-0.2,0.2-0.4,0.4-0.5c0.2-0.1,0.4-0.2,0.7-0.2c0.3,0,0.6,0.1,0.7,0.2c0.2,0.1,0.3,0.4,0.4,0.6h-0.4c0-0.2-0.1-0.3-0.2-0.4
		c-0.1-0.1-0.3-0.1-0.5-0.1c-0.2,0-0.3,0-0.5,0.1c-0.1,0.1-0.2,0.2-0.3,0.4c-0.1,0.2-0.1,0.3-0.1,0.5s0,0.4,0.1,0.5
		c0.1,0.2,0.2,0.3,0.3,0.4c0.1,0.1,0.3,0.1,0.5,0.1c0.2,0,0.4,0,0.5-0.1c0.1-0.1,0.2-0.2,0.2-0.4h0.4c-0.1,0.3-0.2,0.5-0.4,0.6
		C251.8,264.4,251.5,264.5,251.2,264.5L251.2,264.5z"/>
	<path d="M252.5,264.4l1-2.6h0.4l1,2.6h-0.4l-0.8-2.2l-0.8,2.2H252.5z M253,263.8l0.1-0.3h1.2l0.1,0.3H253L253,263.8z"/>
	<path d="M255.6,264.4v-2.3h-0.8v-0.3h1.9v0.3h-0.8v2.3H255.6z"/>
	<path d="M257.1,264.4v-2.6h0.4v2.6H257.1z"/>
	<path d="M259.2,264.5c-0.3,0-0.5-0.1-0.7-0.2c-0.2-0.1-0.3-0.3-0.5-0.5c-0.1-0.2-0.2-0.4-0.2-0.7s0.1-0.5,0.2-0.7
		c0.1-0.2,0.3-0.4,0.5-0.5c0.2-0.1,0.4-0.2,0.7-0.2s0.5,0.1,0.7,0.2c0.2,0.1,0.3,0.3,0.4,0.5s0.2,0.4,0.2,0.7s-0.1,0.5-0.2,0.7
		s-0.3,0.4-0.4,0.5C259.7,264.4,259.5,264.5,259.2,264.5z M259.2,264.1c0.2,0,0.3,0,0.5-0.1c0.1-0.1,0.2-0.2,0.3-0.4
		c0.1-0.2,0.1-0.3,0.1-0.5s0-0.4-0.1-0.5c-0.1-0.2-0.2-0.3-0.3-0.4c-0.1-0.1-0.3-0.1-0.5-0.1s-0.3,0-0.5,0.1
		c-0.1,0.1-0.2,0.2-0.3,0.4c-0.1,0.2-0.1,0.3-0.1,0.5s0,0.4,0.1,0.5c0.1,0.2,0.2,0.3,0.3,0.4C258.9,264.1,259,264.1,259.2,264.1z"/>
	<path d="M260.9,264.4v-2.6h0.4l1.3,2v-2h0.4v2.6h-0.4l-1.3-2v2H260.9z"/>
	<rect x="174.9" y="263.3" class="st10" width="38.5" height="0.5"/>
	<path class="st8" d="M167.9,257.7c0,0,0,0.1,0,0.1c0,0.1,0,0.2,0,0.3c0,0.1,0,0.2,0,0.3c0,0.3-0.1,0.6-0.2,0.8
		c0,0.1-0.1,0.3-0.1,0.4c0,0,0,0.1,0,0.1c0,0.1-0.1,0.2-0.1,0.2c0,0.1-0.1,0.2-0.1,0.3c0,0,0,0.1-0.1,0.1c-0.1,0.2-0.2,0.3-0.3,0.5
		c0,0,0,0.1-0.1,0.1c-0.1,0.2-0.3,0.5-0.4,0.7c-1.3,1.7-3.3,2.8-5.6,2.8v2.6c2.6,0,5-1.1,6.7-2.8c0.4-0.4,0.8-0.9,1.1-1.3
		c0,0,0,0,0,0c0.1-0.2,0.3-0.4,0.4-0.6c0-0.1,0.1-0.1,0.1-0.2c0.1-0.3,0.3-0.5,0.4-0.8c0-0.1,0-0.1,0.1-0.2c0,0,0-0.1,0-0.1
		c0,0,0-0.1,0-0.1c0-0.1,0.1-0.2,0.1-0.3c0,0,0-0.1,0-0.1c0,0,0-0.1,0-0.1c0,0,0-0.1,0-0.1c0,0,0-0.1,0-0.1c0,0,0-0.1,0-0.1
		c0-0.1,0-0.1,0-0.2c0.1-0.3,0.2-0.6,0.2-1c0,0,0-0.1,0-0.1c0,0,0-0.1,0-0.1c0-0.1,0-0.1,0-0.2c0-0.1,0-0.1,0-0.2c0,0,0,0,0,0
		c0-0.1,0-0.2,0-0.3c0,0,0,0,0-0.1c0-0.1,0-0.2,0-0.3H167.9L167.9,257.7z M160.9,250.6c0.1,0,0.1,0,0.2,0c0.1,0,0.1,0,0.2,0
		c0,0,0.1,0,0.1,0c0,0,0.1,0,0.1,0c0.1,0,0.2,0,0.3,0c0,0,0.1,0,0.1,0c0,0,0.1,0,0.1,0c0.1,0,0.1,0,0.2,0c0,0,0.1,0,0.1,0
		c0,0,0,0,0.1,0c0,0,0,0,0,0c0,0,0.1,0,0.1,0c0.1,0,0.1,0,0.2,0c0,0,0,0,0,0c0,0,0.1,0,0.1,0c0.1,0,0.1,0,0.2,0.1
		c0.1,0,0.1,0,0.2,0.1c0.1,0,0.2,0.1,0.3,0.1c0,0,0.1,0,0.1,0.1c0.1,0,0.1,0.1,0.2,0.1c0,0,0.1,0,0.1,0.1c0,0,0.1,0,0.1,0.1
		c0.3,0.2,0.7,0.4,1,0.6c0,0,0.1,0,0.1,0.1c0.3,0.2,0.6,0.5,0.9,0.8c0,0,0.1,0.1,0.1,0.1c0.2,0.3,0.5,0.6,0.7,0.9c0,0,0,0.1,0.1,0.1
		c0,0,0,0.1,0.1,0.1c0.1,0.2,0.3,0.5,0.4,0.8c0,0,0,0.1,0,0.1c0,0.1,0.1,0.2,0.1,0.3c0,0,0,0.1,0,0.1c0,0.1,0,0.1,0.1,0.2
		c0,0.1,0.1,0.2,0.1,0.3c0,0.1,0,0.1,0.1,0.2c0,0.1,0,0.2,0.1,0.3c0,0.1,0,0.2,0,0.2c0,0,0,0.1,0,0.1c0,0,0,0.1,0,0.2
		c0,0.2,0,0.4,0,0.6c0,0.1,0,0.1,0,0.2v0c0,0,0,0,0,0h2.6c0-0.7-0.1-1.4-0.3-2c0-0.1-0.1-0.3-0.1-0.4c0,0,0,0,0,0
		c-1.1-4-4.8-6.9-9.2-6.9c-4.1,0-7.5,2.5-8.9,6.1l0,0c-0.4,1.1-0.6,2.2-0.6,3.4c0,2.5,1,4.9,2.6,6.6l0.1,0l0,0l0.9-3
		c-0.6-1-1-2.3-1-3.6c0-0.8,0.1-1.5,0.4-2.2C155.2,252.6,157.8,250.6,160.9,250.6L160.9,250.6z"/>
	<path class="st4" d="M154.3,255.4c-0.2,0.7-0.4,1.4-0.4,2.2c0,1.3,0.4,2.5,1,3.6l-0.9,3c-1.1-1.4-1.7-3.2-1.7-5.1
		c0-4.7,3.8-8.6,8.6-8.6c4.2,0,7.7,3,8.4,7h-1.4c0,0,0,0,0,0v0c0-0.1,0-0.1,0-0.2c0-0.2,0-0.4,0-0.6c0,0,0-0.1,0-0.2
		c0,0,0-0.1,0-0.1c0-0.1,0-0.2,0-0.2c0-0.1,0-0.2-0.1-0.3c0-0.1,0-0.1-0.1-0.2c0-0.1-0.1-0.2-0.1-0.3c0-0.1,0-0.1-0.1-0.2
		c0,0,0-0.1,0-0.1c0-0.1-0.1-0.2-0.1-0.3c0,0,0-0.1,0-0.1c-0.1-0.3-0.2-0.5-0.4-0.8c0,0,0-0.1-0.1-0.1c0,0,0-0.1-0.1-0.1
		c-0.2-0.3-0.4-0.6-0.7-0.9c0,0-0.1-0.1-0.1-0.1c-0.3-0.3-0.6-0.6-0.9-0.8c0,0-0.1-0.1-0.1-0.1c-0.3-0.2-0.6-0.4-1-0.6
		c0,0-0.1,0-0.1-0.1c0,0-0.1,0-0.1-0.1c-0.1,0-0.1-0.1-0.2-0.1c0,0-0.1,0-0.1-0.1c-0.1,0-0.2-0.1-0.3-0.1c-0.1,0-0.1,0-0.2-0.1
		c-0.1,0-0.1,0-0.2-0.1c0,0-0.1,0-0.1,0c0,0,0,0,0,0c-0.1,0-0.1,0-0.2,0c0,0-0.1,0-0.1,0c0,0,0,0,0,0c0,0,0,0-0.1,0c0,0-0.1,0-0.1,0
		c-0.1,0-0.1,0-0.2,0c0,0-0.1,0-0.1,0c0,0-0.1,0-0.1,0c-0.1,0-0.2,0-0.3,0c0,0-0.1,0-0.1,0c0,0-0.1,0-0.1,0c-0.1,0-0.1,0-0.2,0
		c-0.1,0-0.1,0-0.2,0C157.8,250.6,155.2,252.6,154.3,255.4L154.3,255.4z"/>
	<path class="st4" d="M169.5,259c0,2-0.7,3.9-1.8,5.3c-1.7,1.7-4.1,2.8-6.7,2.8v-2.6c2.3,0,4.3-1.1,5.6-2.8c0.2-0.2,0.3-0.4,0.4-0.7
		c0,0,0-0.1,0.1-0.1c0.1-0.2,0.2-0.3,0.3-0.5c0,0,0-0.1,0.1-0.1c0-0.1,0.1-0.2,0.1-0.3c0-0.1,0.1-0.2,0.1-0.2c0,0,0-0.1,0-0.1
		c0-0.1,0.1-0.3,0.1-0.4c0.1-0.3,0.1-0.6,0.2-0.8c0-0.1,0-0.2,0-0.3c0-0.1,0-0.2,0-0.3c0,0,0-0.1,0-0.1h1.5
		C169.5,258.2,169.5,258.6,169.5,259L169.5,259z"/>
	<path class="st8" d="M167.1,251.1c0,0,0,3.1,0,3.1L164,262l-10.2,3.8c1-1.1,3.7-3.9,4.7-5.1c1.1,0.6,2.1-0.8,1.2-1.7
		c-0.9-0.8-2.3,0.3-1.6,1.4c-1.3,1.4-3.4,3.7-4.7,5.1c0.7-2.5,2.2-7.9,3-10.4v0c0.9-0.3,6.9-3.9,6.9-3.9S166.9,251.2,167.1,251.1
		L167.1,251.1z"/>
	<path class="st4" d="M167.1,251.2l0,0.2l0.1,2.8l0,0L164,262l-10.2,3.8l0,0l1.6-1.7l0,0l3.1-3.3c0.4,0.2,1,0.2,1.3-0.2
		c0.4-0.4,0.4-1.1-0.1-1.5l5.7-6.1l1.5-1.6L167.1,251.2L167.1,251.2z"/>
	<path class="st10" d="M157.3,256.8l-1.9,6.6l-1.9,2l3-10.4v0L157.3,256.8L157.3,256.8z"/>
	<path class="st26" d="M162,261.3l-6.4,2.5l-1.9,2L164,262L162,261.3z"/>
	<path class="st4" d="M170.5,257.7c0,0.1,0,0.2,0,0.3c0,0,0,0,0,0.1c0,0.1,0,0.2,0,0.3c0,0,0,0,0,0c0,0.1,0,0.1,0,0.2
		c0,0.1,0,0.1,0,0.2c0,0,0,0.1,0,0.1c0,0,0,0.1,0,0.1c-0.1,0.3-0.1,0.7-0.2,1c0,0.1,0,0.1,0,0.2c0,0,0,0.1,0,0.1c0,0,0,0.1,0,0.1
		c0,0,0,0.1,0,0.1c0,0,0,0.1,0,0.1c0,0,0,0.1,0,0.1c0,0.1-0.1,0.2-0.1,0.3c0,0,0,0.1,0,0.1c0,0,0,0.1,0,0.1c0,0.1,0,0.1-0.1,0.2
		c-0.1,0.3-0.3,0.5-0.4,0.8c0,0.1-0.1,0.1-0.1,0.2c-0.1,0.2-0.2,0.4-0.4,0.6c0,0,0,0,0,0c-0.3,0.5-0.7,0.9-1.1,1.3
		c-1.7,1.7-4.1,2.8-6.7,2.8v-2.6c2.3,0,4.3-1.1,5.6-2.8c0.2-0.2,0.3-0.4,0.4-0.7c0,0,0-0.1,0.1-0.1c0.1-0.2,0.2-0.3,0.3-0.5
		c0,0,0-0.1,0.1-0.1c0-0.1,0.1-0.2,0.1-0.3c0-0.1,0.1-0.2,0.1-0.2c0,0,0-0.1,0-0.1c0-0.1,0.1-0.3,0.1-0.4c0.1-0.3,0.1-0.6,0.2-0.8
		c0-0.1,0-0.2,0-0.3c0-0.1,0-0.2,0-0.3c0,0,0-0.1,0-0.1H170.5L170.5,257.7z"/>
</g>
</svg>
