<?xml version="1.0" encoding="UTF-8"?><svg id="Layer_2" xmlns="http://www.w3.org/2000/svg" xmlns:xlink="http://www.w3.org/1999/xlink" viewBox="0 0 1920 712.36"><defs><style>.cls-1{clip-path:url(#clippath);}.cls-2{fill:none;}.cls-3{fill:url(#linear-gradient);}</style><clipPath id="clippath"><rect class="cls-2" width="1920" height="712.36"/></clipPath><linearGradient id="linear-gradient" x1="941.26" y1="-12.05" x2="954.17" y2="554.33" gradientUnits="userSpaceOnUse"><stop offset="0" stop-color="#893783"/><stop offset="1" stop-color="#e9a425" stop-opacity="0"/></linearGradient></defs><g id="Layer_1-2"><g class="cls-1"><path class="cls-3" d="M-63.9,145.12C1.84,236.45,73.6,332.52,182.57,375.51c57.38,22.64,120.74,28.51,183.07,30.48,127.13,4.03,257.07-7.62,373.99-54.08,53.61-21.3,103.73-49.61,157.33-70.95,140.83-56.06,300.89-61.43,451.5-35.11,108.74,19,215.73,54.04,326.36,51.92,107.36-2.05,209.93-38.98,309.87-75.4,34.85,142.84,69.71,285.68,104.56,428.51,6.02,24.67,11.6,52.2-2.44,73.89-12.3,19.01-36.35,28.1-58.91,35.44-75.55,24.58-153.26,43.47-232.1,56.45-124.23,20.44-250.66,26.11-376.72,31.07-485.02,19.06-970.51,28.08-1455.96,27.04-14.97-.03-31-.37-43.24-8.37-10.49-6.86-16.32-18.17-21.48-29.07-82.26-173.75-105.34-371.1-65.17-557.16"/></g></g></svg>