<?xml version="1.0" encoding="UTF-8"?><svg id="Layer_2" xmlns="http://www.w3.org/2000/svg" viewBox="0 0 283.39 68.51"><defs><style>.cls-1{fill:#fff;}.cls-2{fill:#ffffff;}.cls-3{fill:#ffffff;}.cls-4{fill:#ffffff;}</style></defs><g id="Layer_1-2"><g id="Layer_1-2"><g><g><path class="cls-2" d="M243.13,40.44c.19,.15,.41,.23,.65,.28,.14,.03,.28,.06,.39,.14,.39,.26,.82,.31,1.26,.33,.06,0,.12,.01,.19,.03,.01,0,.03,.02,.06,.04-.28,.08-.56,.13-.82,.22-.32,.12-.63,.24-.93,.4-.3,.17-.3,.44,0,.61,.31,.17,.64,.32,.98,.41,.62,.16,1.25,.29,1.88,.39,.59,.1,1.19,.16,1.79,.23,.75,.08,1.51,.14,2.26,.19,.37,.03,.74,.05,1.11,.05,2.08,.03,4.16,.07,6.24,.05,1.23-.01,2.46-.1,3.69-.2,.8-.06,1.61-.16,2.41-.28,.75-.12,1.49-.26,2.21-.43,.33-.08,.65-.23,.95-.39,.32-.17,.32-.44,0-.62-.28-.16-.6-.28-.91-.39-.3-.1-.61-.15-.92-.23-.03,0-.05-.03-.08-.05,.14-.22,.28-.42,.41-.64,.05-.07,.08-.17,.08-.25-.02-.45,.12-.88,.18-1.31,.05-.32,.09-.64,.13-.96h0c.23-.7,.07-2.36,.01-2.83h0c0-.08-.01-.13-.01-.13h0c-.04-.34-.1-.68-.17-1.01-.28-1.27-.77-2.45-1.39-3.59-.2-.36-.35-.75-.58-1.09-.25-.37-.44-.77-.62-1.18-.19-.45-.53-.79-.93-1.06-.1-.06-.19-.15-.27-.23-.18-.17-.34-.36-.33-.64,0-.08-.04-.15-.07-.28-.23,.06-.46,.12-.69,.19-.19,.07-.18,.08-.26-.12-.1-.24-.11-.47-.06-.71,.02-.1,.04-.21,.05-.32,.06-1.04,.13-2.07,.17-3.11,.03-.71-.25-1.32-.73-1.84-.03-.03-.04-.05-.05-.11,.06,.03,.11,.06,.2,.1-.28-.59-.69-.94-1.4-.86,.06-.14,.1-.24,.14-.35,0-.01-.01-.02-.01-.03-.1,.07-.19,.15-.29,.22-.16-.14-.32-.3-.5-.43-.21-.15-.45-.21-.7-.21-.5,.02-.98-.07-1.44-.27-.02,0-.05,0-.12-.01,.12,.13,.21,.23,.3,.33-.4-.13-.72,.1-1.06,.21-.09,.03-.19,.06-.28,.07-.29,.03-.42-.06-.56-.35-.26,.06-.44,.29-.52,.64-.03-.06-.05-.13-.08-.21-.27,.08-.41,.28-.48,.54-.06,.23-.12,.44-.19,.67-.12,.36-.39,.52-.75,.55-.08,0-.17,0-.27,0,.05,.25,.15,.46,.34,.6,.07,.05,.08,.08,.05,.16-.23,.5-.23,.99,.03,1.48,.08,.14,.13,.3,.19,.45,.15-.04,.19-.07,.39-.42,.01,.01,.03,.03,.03,.04-.05,.86,.3,1.56,.83,2.2,0,0,0,0,.01,.01,.29,.22,.32,.52,.28,.85-.01,.14,.02,.27,.03,.41v.2s-.03,.02-.05,.02c-.07,.01-.19-.03-.17,.1,0,.06,.09,.13,.16,.15,.08,.03,.17,.03,.25,.02,.19,0,.26,.05,.29,.24,.01,.1,.01,.19,.02,.3,.1,.01,.19,.02,.29,.03,.05,.18,.13,.33,.36,.32,.04,0,.08,.06,.11,.1,.08,.12,.15,.25,.22,.38,.09,.17,.24,.23,.4,.17,.3-.12,.59-.24,.88-.4,.23-.12,.42-.3,.64-.44,.08-.06,.14-.07,.19,.02s.11,.17,.14,.27c.01,.05-.03,.12-.06,.17-.04,.08-.12,.17-.12,.25,0,.27-.05,.51-.22,.74-.1,.14-.13,.35-.16,.54-.06,.43-.06,.88-.17,1.29-.11,.48-.29,.94-.47,1.4-.05,.12-.21,.2-.32,.29-.05,.03-.1,.06-.14,.08-.26-.16-.42,.09-.66,.12,.02,.15,.04,.3,.06,.48-.37-.03-.71-.05-1.06-.08v-.07h.82c-.03-.32,.09-.54,.37-.66,.08-.03,.15-.07,.23-.1,.08-.02,.17-.03,.26,0,.06-.05,.14-.1,.21-.15-.6-.6-1.19-1.18-1.92-1.6-.64-.37-1.27-.34-1.88,.05-.53,.33-.94,.8-1.35,1.28,.45,.23,.89,.44,1.33,.66,0,.02-.01,.05-.02,.06-.14-.03-.3-.05-.42-.11-.65-.35-1.33-.62-2.03-.86-.28-.1-.59-.12-.88-.17-.17-.03-.33-.03-.5-.05l-.28-.07h0l-1-.86s-.03-.03-.05-.05h0s-1.09-.93-1.09-.93c-.63-.55-1.26-1.09-1.9-1.64-.08,.12-.12,.21,.01,.32,.33,.28,.66,.57,.99,.87,.03,.03,.05,.06,.06,.09h-.01c-.2-.14-.4-.29-.6-.44-.24-.19-.47-.39-.73-.61-.03,.22-.05,.4-.09,.58-.06,.26-.12,.52-.19,.78-.03,.12-.03,.22,.08,.3,1,.72,1.98,1.45,2.98,2.16,.13,.09,.19,.19,.21,.35,.07,.46,.26,.89,.52,1.28,.03,.05,.1,.1,.15,.1,.25,0,.51,0,.76-.04,.25-.03,.5-.13,.75-.14,.19-.01,.4,.03,.57,.1,.35,.15,.69,.34,1.03,.52,.03,.01,.04,.04,.08,.09-.63-.18-1.17-.63-1.89-.44,.24,.2,.44,.37,.66,.55-.28,.53-.57,1.05-.85,1.57-.42,.79-.85,1.56-1.28,2.34-.21,.37-.45,.71-.84,.91-.06,.03-.13,.05-.19,.07-.06,.03-.13,.05-.18,.08-.24,.03-.8,.09-1.13,.13-.08,0-.17,.01-.25,.03-.39,.08-.79,.16-1.17,.28-.3,.09-.58,.03-.86-.06-.19-.06-.37-.13-.55-.19-.17,.36-.08,.71,.26,.96l-.05,.03Zm6.03,.33c.04-.45,.19-.81,.46-1.12,.71-.81,1.51-1.53,2.35-2.2,.64-.52,1.36-.95,1.82-1.71,.35,.5,.68,.97,1.01,1.45,.03,.03,.02,.1,.01,.14-.12,.45-.24,.89-.37,1.34-.03,.11-.02,.17,.1,.24,.45,.29,.89,.59,1.33,.89,.27,.19,.52,.42,.77,.64,0,.02-.01,.04-.02,.05-2.49-.02-4.97,.05-7.47,.26h0Z"/><path class="cls-2" d="M248.88,31.17c-.45-.39-.9-.78-1.35-1.17-.51-.45-1.02-.9-1.53-1.36,.06-.06,.11-.1,.17-.14,.23-.14,.38-.14,.53,0,.83,.73,1.66,1.45,2.5,2.17,.31,.26,.62,.52,.95,.8-.32-.05-.59-.11-.86-.12-.17-.01-.29-.07-.41-.17Z"/></g><ellipse class="cls-2" cx="255.42" cy="42.16" rx="27.96" ry="1.64"/><path class="cls-4" d="M31.57,23.18c2.8,2.48,5.12,6.83,3.95,10.65-1.1,3.58-5.34,5.62-8.84,5.63-3.76,.01-7.33-1.8-10.22-4.2-4.58-3.79-7.79-9.08-9.58-14.74S4.63,8.84,5.01,2.91c.83,3.38,1.95,6.69,3.34,9.87,.15,.35,.35,.74,.72,.83,.32,.08,.64-.09,.92-.26,3.94-2.31,7.88-4.62,11.83-6.93,2.2-1.29,4.52-2.62,7.07-2.73,3.03-.13,5.83,1.47,8.44,3.01,5.26,3.12,10.51,6.23,15.77,9.35,1.85,1.1,3.8,2.3,4.72,4.24,.68,1.44,.7,3.09,.7,4.68,.01,7.17,.02,14.34,.03,21.51,0,2.2-.06,4.58-1.43,6.29-1.67,2.07-4.68,2.42-7.34,2.24-8.56-.61-16.69-5.25-21.53-12.35,4.29-.14,8.87-2.7,9.39-7.29,.53-6.07-3.22-11.59-6.06-12.19m-8.9-.91c-2.72-.02-5.03,2.26-5.09,5.03-.07,2.82,2.35,5.34,5.15,5.37,2.8,.03,5.29-2.47,5.26-5.27-.03-2.91-2.32-5.12-5.32-5.14"/><path class="cls-2" d="M61.9,58.39c-1.08,1.02-2.16,1.17-3.17,1.4-4.51,1.02-9.1,1.51-13.71,1.83-1.47,.1-2.7,.6-3.93,1.3-2.65,1.53-5.31,3.05-7.98,4.54-2.51,1.4-5.11,1.38-7.6,.03-7.06-3.84-13.96-7.94-20.89-12.01C1.23,53.48-.02,50.55,0,46.81c.03-7.47,.02-14.96,.06-22.43,.01-2.58,.67-4.93,2.76-6.68,.82-.69,1.31-.75,1.52,.5,1.24,7.37,4.19,14,8.94,19.75,2.2,2.67,5.03,4.74,7.82,6.81,4.73,3.51,9.79,6.48,15.25,8.67,7.52,3.01,15.31,4.87,23.47,4.87,.59,0,1.18,.05,2.09,.09"/><path class="cls-2" d="M260.19,9.86s.05-.04,.08-.06c-.02,.03-.04,.06-.06,.08h-.01"/><path class="cls-2" d="M275.11,3.67s.1,.02,.13,.05c.02,.01,.01,.07,.02,.1-.05-.05-.09-.11-.14-.16h-.01"/><path class="cls-1" d="M256.63,40.68c-2.12,.17-4,.15-5.87-.05,0-.21-.02-.28,0-.32,.82-1.4,1.74-3.27,3.21-3.23,1.19,.03,1.88,2.02,2.66,3.59"/><path class="cls-1" d="M258.32,28.71c.01-.14,.03-.27,.05-.4,.05,.02,.12,.03,.12,.06,.06,.19-.03,.28-.2,.32l.03,.02"/><path class="cls-1" d="M260.19,9.86s.05-.04,.08-.06c-.02,.03-.04,.06-.06,.08h-.01"/><path class="cls-1" d="M265.81,5.65l-.08,.03s.05-.03,.07-.05l.02,.02h0Z"/><path class="cls-1" d="M260.12,9.89c-.17,.08-.33,.16-.5,.24-.01-.07-.03-.14-.05-.21,.18-.01,.36-.03,.54-.04"/><polygon class="cls-2" points="274.02 .13 275.04 1.52 276.77 1.47 275.76 2.87 276.35 4.5 274.7 3.98 273.34 5.03 273.32 3.31 271.89 2.34 273.54 1.79 274.02 .13"/><polygon class="cls-2" points="264.7 15.03 265.35 15.91 266.45 15.88 265.81 16.77 266.18 17.81 265.13 17.47 264.26 18.15 264.26 17.05 263.35 16.43 264.39 16.08 264.7 15.03"/><polygon class="cls-2" points="268.03 19.24 268 20.33 268.89 20.98 267.84 21.29 267.5 22.34 266.88 21.43 265.78 21.44 266.45 20.56 266.11 19.52 267.14 19.88 268.03 19.24"/><path class="cls-2" d="M274.4,9.97c-.05,.57-.18,.8-1.12,.94-9.98,.68-13.36,2.73-15.12,3.85,1.32-1.35,8.02-5.49,15.3-5.91,.57,.05,.99,.55,.94,1.12Z"/><path class="cls-2" d="M255.16,7.09c.35,.45,.41,.71-.18,1.46-6.84,7.29-7.93,11.09-8.45,13.11,.05-1.89,2.14-9.48,7.17-14.74,.45-.35,1.1-.27,1.46,.18h0Z"/><path class="cls-2" d="M248.2,21.09c1.46-3.89,4.08-7.24,6.97-10.18,.97-.99,2-1.93,3.1-2.77,2.2-1.69,4.4-3.37,6.74-4.89,1.89-1.24,3.91-2.3,6.03-3.12,.61-.24,1.22-.13,1.79,.26l.07,.17c-.1,.51-.3,.86-.62,1.17-.26,.24-.59,.33-.9,.48-.61,.3-1.23,.56-1.84,.84-1.22,.57-2.47,1.09-3.69,1.67-2.45,1.14-4.86,2.47-6.97,4.17-1.02,.81-2.15,1.73-3.13,2.6-3,2.74-5.79,5.88-7.52,9.59h-.01Z"/><path class="cls-2" d="M248.97,21.65c2.54-4.19,6.72-8.03,10.92-10.55,1.23-.71,2.53-1.43,3.79-2.11,.27-.14,1-.52,1.29-.66,.28-.14,1.03-.5,1.31-.63,2.05-.96,4.21-1.71,6.44-2.11,.61-.12,1.15,.13,1.6,.62l.03,.18c-.18,.47-.4,.78-.76,1.02-.28,.18-.59,.19-.89,.28-.45,.12-.9,.23-1.35,.34-1.5,.39-3.01,.76-4.51,1.18-1.02,.31-2.12,.66-3.1,1.06-1.45,.56-2.85,1.33-4.17,2.14-4.03,2.41-7.82,5.41-10.6,9.24h0Z"/><path class="cls-2" d="M248.27,21.86c2.24-3.8,5.16-7.22,8.41-10.21,2.85-2.58,6.13-4.63,9.55-6.38,1.17-.57,2.38-1.03,3.65-1.31,.71-.23,1.46-.23,2.06,.33l.05,.23c-.24,.55-.61,.94-1.16,1.11-.42,.15-.87,.31-1.29,.44-2.01,.71-4.06,1.36-5.95,2.38-5.96,3.34-11.17,8-15.32,13.42h0Z"/><g><path class="cls-3" d="M110.86,49.34h2.61c1.07,0,1.77,.63,1.77,1.58,0,.83-.56,1.45-1.42,1.56l1.8,2.91h-.93l-1.8-2.89h-1.25v2.89h-.79v-6.04Zm2.61,2.45c.59,0,.98-.35,.98-.87s-.39-.87-.98-.87h-1.82v1.74h1.82Z"/><path class="cls-3" d="M116.13,53.11v-3.78h.79v3.78c0,.98,.67,1.65,1.6,1.65s1.58-.7,1.58-1.65v-3.78h.79v3.78c0,1.36-1,2.35-2.38,2.35s-2.4-.98-2.4-2.35Z"/><path class="cls-3" d="M122.13,49.34h.87l3.39,4.94v-4.94h.79v6.04h-.88l-3.38-4.93v4.93h-.79v-6.04Z"/><path class="cls-3" d="M130.51,49.34h2.61c1.07,0,1.79,.6,1.79,1.51,0,.44-.26,.92-.65,1.2,.68,.25,1.13,.9,1.13,1.62,0,1.03-.75,1.72-1.87,1.72h-3.01v-6.04Zm2.61,2.45c.6,0,1-.35,1-.87s-.4-.87-1-.87h-1.82v1.74h1.82Zm.4,2.89c.64,0,1.07-.43,1.07-1.08s-.42-1.1-1.07-1.1h-2.23v2.18h2.22Z"/><path class="cls-3" d="M137.26,53.31l-1.96-3.97h.87l1.49,3.07,1.48-3.07h.87l-1.95,3.97v2.07h-.79v-2.07Z"/><path class="cls-3" d="M142.92,49.34h.79v6.04h-.79v-6.04Z"/><path class="cls-3" d="M145.12,49.34h.79v6.04h-.79v-6.04Z"/><path class="cls-3" d="M147.15,49.34h1.07l2.15,5.04,2.15-5.04h1.07v6.04h-.79v-5.07l-2.12,5.07h-.6l-2.12-5.07v5.07h-.79v-6.04Z"/><path class="cls-3" d="M160.27,53.36h-2.48l-.8,2.02h-.85l2.48-6.04h.81l2.48,6.04h-.85l-.8-2.02Zm-.28-.7l-.96-2.41-.96,2.41h1.92Z"/><path class="cls-3" d="M162.57,49.34h.79v5.34h3.11v.7h-3.9v-6.04Z"/><path class="cls-3" d="M167.34,53.11v-3.78h.79v3.78c0,.98,.67,1.65,1.6,1.65s1.58-.7,1.58-1.65v-3.78h.79v3.78c0,1.36-1,2.35-2.38,2.35s-2.4-.98-2.4-2.35Z"/><path class="cls-3" d="M173.35,49.34h1.07l2.15,5.04,2.15-5.04h1.07v6.04h-.79v-5.07l-2.12,5.07h-.6l-2.12-5.07v5.07h-.79v-6.04Z"/><path class="cls-3" d="M181,49.34h.87l3.39,4.94v-4.94h.79v6.04h-.88l-3.38-4.93v4.93h-.79v-6.04Z"/><path class="cls-3" d="M187.46,49.34h.79v6.04h-.79v-6.04Z"/></g><g><path class="cls-4" d="M77.08,23.64v18.22c0,.17-.13,.3-.3,.3h-3.41c-.17,0-.3-.13-.3-.3V23.64c0-.17,.13-.3,.3-.3h3.41c.17,0,.3,.13,.3,.3Z"/><path class="cls-4" d="M93.49,27.21c.37,.85,.55,1.71,.55,2.57s-.18,1.69-.55,2.52c-.33,.78-.82,1.46-1.47,2.05-1.29,1.24-2.86,1.85-4.7,1.85h-2.05c-.17,0-.3,.13-.3,.3v5.35c0,.17-.13,.3-.3,.3h-3.41c-.17,0-.3-.13-.3-.3V23.64c0-.17,.13-.3,.3-.3h6.07c1.84,0,3.41,.62,4.7,1.85,.65,.59,1.13,1.26,1.47,2.02Zm-6.17,4.98c.76,0,1.4-.24,1.92-.71s.79-1.04,.79-1.7-.26-1.26-.79-1.73-1.17-.71-1.92-.71h-2.05c-.17,0-.3,.13-.3,.3v4.25c0,.17,.13,.3,.3,.3h2.05Z"/><path class="cls-4" d="M106.63,34.1l8.98-10.66c.15-.18,.44-.07,.44,.16v18.31c0,.14-.11,.25-.25,.25h-3.52c-.14,0-.25-.11-.25-.25v-7.32c0-.23-.29-.34-.44-.16l-4.96,5.92c-.1,.12-.28,.12-.38,0l-4.96-5.92c-.15-.18-.44-.07-.44,.16v7.32c0,.14-.11,.25-.25,.25h-3.55c-.14,0-.25-.11-.25-.25V23.6c0-.23,.29-.34,.44-.16l9.01,10.66c.1,.12,.28,.12,.38,0Z"/><path class="cls-4" d="M131.57,36.87c1.12,1.13,2.49,1.69,4.1,1.69s2.85-.51,3.95-1.52c.1-.09,.25-.1,.35,0l2.49,2.46c.1,.1,.1,.28,0,.38-.88,.83-1.9,1.49-3.07,1.97-1.18,.48-2.41,.72-3.68,.72s-2.49-.24-3.71-.72c-1.22-.5-2.3-1.22-3.24-2.16-.94-.94-1.66-2.02-2.16-3.24-.48-1.22-.72-2.45-.72-3.71s.24-2.49,.72-3.71c.5-1.22,1.22-2.3,2.16-3.24,.94-.94,2.02-1.66,3.24-2.16,1.22-.48,2.45-.72,3.71-.72s2.5,.24,3.68,.72c1.17,.48,2.19,1.14,3.07,1.97,.11,.1,.11,.27,0,.38l-2.49,2.49c-.1,.1-.25,.09-.35,0-1.09-1.01-2.41-1.52-3.95-1.52s-2.97,.56-4.1,1.69-1.69,2.49-1.69,4.1,.56,2.96,1.69,4.12Z"/><path class="cls-4" d="M157.66,42.01l-1.22-2.53c-.04-.09-.13-.15-.23-.15h-6.6c-.1,0-.19,.06-.23,.14l-1.24,2.53c-.04,.09-.13,.14-.23,.14h-3.88c-.19,0-.32-.2-.23-.37l8.89-18.38c.09-.19,.37-.19,.46,0l8.86,18.38c.08,.17-.04,.37-.23,.37h-3.88c-.1,0-.19-.06-.23-.15Zm-6.27-5.86h3.02c.19,0,.31-.2,.23-.37l-1.5-3.13c-.09-.19-.37-.2-.46,0l-1.52,3.13c-.08,.17,.04,.37,.23,.37Z"/><path class="cls-4" d="M175.11,35.09l3.66,6.68c.09,.17-.03,.38-.23,.38h-3.98c-.09,0-.18-.05-.23-.13l-5.53-10c-.1-.17,.03-.38,.23-.38h2.75c.7,0,1.4-.24,1.85-.77,.33-.39,.5-.86,.5-1.38,0-.59-.21-1.09-.62-1.51s-.92-.62-1.51-.62h-3.48c-.14,0-.26,.12-.26,.26v14.29c0,.14-.12,.26-.26,.26h-3.5c-.14,0-.26-.12-.26-.26V23.6c0-.14,.12-.26,.26-.26h7.39c1.55,0,3.08,.53,4.22,1.58,1.37,1.26,2.05,2.78,2.05,4.56s-.61,3.16-1.83,4.37c-.35,.35-.73,.65-1.14,.9-.12,.07-.16,.22-.09,.34Z"/><path class="cls-4" d="M185.69,38.14h7.37c.14,0,.26,.12,.26,.26v3.5c0,.14-.12,.26-.26,.26h-11.38c-.14,0-.26-.12-.26-.26V23.6c0-.14,.12-.26,.26-.26h10.83c.14,0,.26,.12,.26,.26v3.5c0,.14-.12,.26-.26,.26h-6.82c-.14,0-.26,.12-.26,.26v2.45c0,.14,.12,.26,.26,.26h6.26c.14,0,.26,.12,.26,.26v3.5c0,.14-.12,.26-.26,.26h-6.26c-.14,0-.26,.12-.26,.26v3.3c0,.14,.12,.26,.26,.26Z"/><path class="cls-4" d="M200.49,38.14h7.37c.14,0,.26,.12,.26,.26v3.5c0,.14-.12,.26-.26,.26h-11.38c-.14,0-.26-.12-.26-.26V23.6c0-.14,.12-.26,.26-.26h10.83c.14,0,.26,.12,.26,.26v3.5c0,.14-.12,.26-.26,.26h-6.82c-.14,0-.26,.12-.26,.26v2.45c0,.14,.12,.26,.26,.26h6.26c.14,0,.26,.12,.26,.26v3.5c0,.14-.12,.26-.26,.26h-6.26c-.14,0-.26,.12-.26,.26v3.3c0,.14,.12,.26,.26,.26Z"/><path class="cls-4" d="M221.88,35.09l3.66,6.68c.09,.17-.03,.38-.23,.38h-3.98c-.09,0-.18-.05-.23-.13l-5.53-10c-.1-.17,.03-.38,.23-.38h2.75c.7,0,1.4-.24,1.85-.77,.33-.39,.5-.86,.5-1.38,0-.59-.21-1.09-.62-1.51s-.92-.62-1.51-.62h-3.48c-.14,0-.26,.12-.26,.26v14.29c0,.14-.12,.26-.26,.26h-3.5c-.14,0-.26-.12-.26-.26V23.6c0-.14,.12-.26,.26-.26h7.39c1.55,0,3.08,.53,4.22,1.58,1.37,1.26,2.05,2.78,2.05,4.56s-.61,3.16-1.83,4.37c-.35,.35-.73,.65-1.14,.9-.12,.07-.16,.22-.09,.34Z"/><path class="cls-4" d="M238.46,31.36c.79,.48,1.38,1.11,1.77,1.88,.42,.81,.64,1.76,.64,2.85,0,.87-.19,1.72-.55,2.55-.39,.83-.9,1.52-1.52,2.08-1.38,1.24-3.06,1.85-5.04,1.85-1.25,0-2.44-.25-3.54-.75-1.08-.48-2.04-1.14-2.86-1.99-.1-.1-.1-.28,0-.38l2.53-2.39c.1-.09,.25-.09,.35,0,1.01,.99,2.18,1.48,3.51,1.48,1,0,1.77-.28,2.32-.83,.52-.44,.77-.99,.77-1.63s-.17-1.09-.5-1.33c-.33-.24-1.17-.48-2.52-.72-1.72-.33-2.95-.73-3.71-1.19-1.57-.92-2.35-2.39-2.35-4.4,0-1.68,.56-3.04,1.69-4.07,1.07-.98,2.5-1.47,4.29-1.47,.96,0,2,.16,3.13,.47,1.03,.29,1.94,.71,2.72,1.28,.12,.09,.14,.26,.05,.37l-2.15,2.77c-.08,.11-.23,.13-.35,.05-.37-.25-.84-.46-1.41-.63-.68-.2-1.35-.3-1.99-.3-.77,0-1.31,.15-1.6,.44-.24,.24-.36,.6-.36,1.08,0,.15,0,.27,.01,.37,0,.1,.03,.19,.07,.25,.04,.06,.07,.12,.1,.15,.03,.04,.07,.08,.12,.12,.06,.05,.09,.08,.11,.1,.33,.2,1.12,.42,2.35,.64,1.77,.31,3.07,.74,3.9,1.27Z"/></g></g></g></g></svg>