<?xml version="1.0" encoding="UTF-8"?><svg id="Layer_2" xmlns="http://www.w3.org/2000/svg" viewBox="0 0 36.44 38.62"><defs><style>.cls-1{fill:#fff;}</style></defs><g id="Layer_1-2"><path class="cls-1" d="M18.13,11.93c1.65,1.46,3.01,4.02,2.33,6.27-.64,2.11-3.14,3.31-5.2,3.31-2.21,0-4.31-1.06-6.02-2.47-2.69-2.23-4.58-5.34-5.64-8.68S2.28,3.49,2.5,0c.49,1.99,1.15,3.94,1.97,5.81,.09,.21,.21,.43,.43,.49,.19,.05,.38-.05,.54-.15,2.32-1.36,4.64-2.72,6.96-4.08,1.3-.76,2.66-1.54,4.16-1.61,1.78-.08,3.43,.86,4.97,1.77,3.09,1.83,6.19,3.67,9.28,5.5,1.09,.64,2.24,1.35,2.78,2.5,.4,.85,.41,1.82,.41,2.75,0,4.22,.01,8.44,.02,12.66,0,1.29-.03,2.7-.84,3.7-.98,1.22-2.76,1.43-4.32,1.32-5.04-.36-9.82-3.09-12.67-7.27,2.53-.08,5.22-1.59,5.53-4.29,.31-3.57-1.89-6.82-3.57-7.18m-5.24-.53c-1.6-.01-2.96,1.33-3,2.96-.04,1.66,1.38,3.15,3.03,3.16,1.65,.02,3.12-1.45,3.1-3.1-.02-1.71-1.36-3.01-3.13-3.02"/><path class="cls-1" d="M36.44,32.66c-.63,.6-1.27,.69-1.86,.83-2.66,.6-5.36,.89-8.07,1.08-.87,.06-1.59,.35-2.31,.77-1.56,.9-3.12,1.8-4.7,2.67-1.48,.82-3.01,.81-4.47,.02-4.15-2.26-8.22-4.68-12.29-7.07C.72,29.77-.01,28.04,0,25.84c.02-4.4,.01-8.8,.03-13.2,0-1.52,.39-2.9,1.62-3.93,.49-.41,.77-.44,.89,.3,.73,4.34,2.47,8.24,5.26,11.63,1.3,1.57,2.96,2.79,4.6,4.01,2.78,2.07,5.76,3.82,8.97,5.1,4.43,1.77,9.01,2.87,13.81,2.87,.35,0,.7,.03,1.23,.05"/></g></svg>